<?xml version="1.0" encoding="UTF-8"?>
<svg version="1.1" viewBox="0 0 1600 896" width="1280" height="1280" xmlns="http://www.w3.org/2000/svg">
<path transform="translate(340 236)" d="m0 0c2.19 2.43 3.91 4.42 5.19 7.44-1.19 4.37-3.45 6.74-6.69 9.81-2.97 2.87-5.85 5.71-8.5 8.88-3.67 4.25-7.53 8.29-11.4 12.3-0.646 0.684-1.29 1.37-1.96 2.07-0.937 0.954-0.937 0.954-1.89 1.93-0.837 0.866-0.837 0.866-1.69 1.75-2.42 1.65-3.96 1.59-6.83 1.25-2.04-1.58-2.04-1.58-4.19-3.81-25.2-23.7-62.8-34.4-96.7-33.5-12.7 0.59-26 2.13-38.1 6.29-0.66 0.216-1.32 0.432-2 0.655-19.8 6.54-36.5 16.2-52.2 30-2.81 2.38-2.81 2.38-4.81 2.38-0.237 0.561-0.474 1.12-0.719 1.7-1.57 2.82-3.53 4.79-5.78 7.11-14.4 15.6-24.5 35.2-30.4 55.4-1.14 3.75-1.14 3.75-2.68 7.36-2.24 5.86-2.56 12.1-3.15 18.3-0.13 1.22-0.259 2.43-0.393 3.68-1.17 11.4-0.938 22.2 0.197 33.6 0.196 2.01 0.375 4.01 0.553 6.02 0.639 6.53 1.32 11.9 4.33 17.8 0.511 1.62 0.994 3.24 1.44 4.88 1.84 6.37 4.58 12.2 7.56 18.1 2 4 2 4 2.88 6 1.09 2.16 1.09 2.16 3.25 4.06 1.88 1.94 1.88 1.94 1.88 4.94 1.62 1.71 3.3 3.37 5 5 1.42 1.71 2.81 3.44 4.19 5.19 13.1 16.1 29.3 28.6 47.8 37.8 0.632 0.317 1.26 0.633 1.92 0.959 7.99 3.92 16.2 6.86 24.7 9.35 0.822 0.243 1.64 0.485 2.49 0.735 12 3.34 24.1 4.32 36.5 4.26 1.31-0.00564 2.62-0.0113 3.97-0.0171 38.4-0.477 72.8-14.3 100-41.5 9.04-9.44 14.7-20.6 19.4-32.8 0.391-1.01 0.781-2.02 1.18-3.05 2.73-7.53 3.87-15 4.82-22.9 0.867-6.73 0.867-6.73 2-9h-130c-2.25-6.75-2.25-6.75-2.24-10.8-0.00308-0.891-0.00615-1.78-0.00932-2.7 0.0108-1.42 0.0108-1.42 0.0218-2.86 4.58e-4 -0.983 9.16e-4 -1.97 0.00139-2.98 0.00301-2.07 0.0109-4.14 0.0233-6.21 0.0183-3.17 0.0205-6.35 0.0203-9.52 0.00491-2.01 0.0107-4.03 0.0176-6.04 0.00111-0.95 0.00223-1.9 0.00337-2.88 0.00638-0.881 0.0128-1.76 0.0193-2.67 0.00381-0.775 0.00762-1.55 0.0116-2.35 0.134-2.03 0.134-2.03 1.13-5.03h185c2.3 18.4 2.3 18.4 2.23 26.5-4.58e-4 0.891-9.16e-4 1.78-0.00139 2.7-0.00297 1.85-0.0107 3.7-0.0233 5.54-0.0185 2.81-0.0205 5.62-0.0203 8.44-0.00491 1.82-0.0107 3.63-0.0176 5.45-0.00111 0.827-0.00223 1.65-0.00337 2.51-0.0521 6.45-0.562 12.6-2.16 18.9-0.212 1.94-0.42 3.87-0.625 5.81-2.43 17.1-8.65 33.8-16.4 49.2-0.337 0.676-0.675 1.35-1.02 2.05-10.4 20.5-25.7 39-44 53-0.933 0.737-1.87 1.47-2.83 2.23-40.7 31.6-94.5 42.7-145 36.8-33.9-4.55-66.1-16-94-36.1l-1.78-1.27c-8.27-6-15.8-12.7-23.2-19.7-0.927-0.874-1.85-1.75-2.81-2.65-15.1-14.6-27.6-32.6-37.2-51.4v-2c-0.66-0.33-1.32-0.66-2-1-2.33-3.64-3.03-7.84-4-12h-2c-0.33-2.64-0.66-5.28-1-8h-2c-0.182-0.617-0.364-1.23-0.551-1.87-0.251-0.847-0.503-1.69-0.762-2.57-0.244-0.824-0.487-1.65-0.738-2.5-0.526-1.7-1.06-3.4-1.65-5.08-1.93-5.56-3.3-11.1-4.42-16.9-0.169-0.821-0.338-1.64-0.512-2.49-8.55-43.1-0.191-89.3 20.6-128 0.352-0.662 0.704-1.32 1.07-2.01 6.07-11.4 12.7-22.9 21.9-32 1.06-1.21 2.11-2.43 3.15-3.64 4.26-4.9 8.81-9.47 13.4-14 1.24-1.24 1.24-1.24 2.5-2.51 16.2-16.1 35.4-28 55.9-37.8 0.632-0.308 1.26-0.616 1.92-0.934 10.8-5.25 22-8.57 33.6-11.5 2.04-0.505 4.06-1.04 6.09-1.58 58-14.3 129 3.25 173 43.5zm0.188 195 1 2z" fill="#0086F6"/>
<path transform="translate(1168 351)" d="m0 0c1.55 1.3 3.09 2.61 4.62 3.94 0.717 0.607 1.43 1.21 2.17 1.84 1.62 1.38 3.23 2.77 4.83 4.16-0.33-0.66-0.66-1.32-1-2-0.0983-2.66-0.139-5.28-0.125-7.94-0.00387-0.729-0.00773-1.46-0.0117-2.21 0.00589-3.21 0.114-5.79 1.14-8.85h54c-0.33 0.99-0.66 1.98-1 3-0.0877 1.42-0.12 2.84-0.117 4.26-7.58e-4 0.875-0.00152 1.75-0.0023 2.65 0.00428 0.962 0.00855 1.92 0.013 2.91 5.57e-4 1.02 0.00111 2.04 0.00169 3.09 0.00305 3.44 0.0132 6.88 0.0233 10.3 0.00355 2.46 0.00664 4.92 0.00929 7.38 0.00656 5.31 0.016 10.6 0.0279 15.9 0.017 7.69 0.0265 15.4 0.0339 23.1 0.012 12.5 0.0269 25 0.0451 37.5 0.00109 0.748 0.00218 1.5 0.0033 2.27 0.0156 10.6 0.0342 21.2 0.054 31.8 0.00139 0.744 0.00279 1.49 0.00422 2.26 0.00209 1.12 0.00209 1.12 0.00422 2.25 0.0231 12.4 0.0384 24.9 0.0473 37.3 0.00583 7.66 0.0181 15.3 0.039 23 0.0154 5.89 0.0203 11.8 0.0214 17.7 0.00214 2.4 0.00769 4.81 0.017 7.21 0.0992 26.5-3.67 50.2-15.2 74.2-0.46 0.975-0.92 1.95-1.39 2.95-12.6 24.8-35.3 41.8-61.2 50.9-33.5 10.5-70.9 8.96-103-6.65-23.6-12.3-46.7-35.2-56.9-60.2v-4c5.53-2.37 11.1-4.74 16.6-7.1 1.88-0.803 3.76-1.61 5.64-2.41 2.71-1.16 5.43-2.32 8.14-3.48 1.24-0.535 1.24-0.535 2.51-1.08 5.3-2.25 10.6-4.17 16.1-5.93l2 8h2c1.47 1.86 1.47 1.86 3.06 4.31 0.527 0.801 1.05 1.6 1.6 2.43 1.34 2.26 1.34 2.26 2.34 5.26 1.66 1.34 3.33 2.67 5 4v2c0.603 0.276 1.21 0.552 1.83 0.836 2.17 1.16 2.17 1.16 4.92 3.79 14.8 12.9 33.6 15.5 52.5 14.6 16.7-1.28 32.7-8.8 43.8-21.6 12.2-16.5 14.5-33.7 14.2-53.5-0.0151-1.67-0.0288-3.34-0.041-5.01-0.0326-4.04-0.0841-8.08-0.146-12.1h2v-3h-2c-0.231 0.562-0.461 1.12-0.699 1.7-7.57 13.4-26.5 22.3-40.6 26.2-32.5 7.9-63.9 0.96-92.2-16.1-7.65-4.78-14.1-10.5-20.5-16.8-0.864-0.802-1.73-1.6-2.62-2.43-9.19-8.73-21.5-22.5-23.9-35.3-0.156-0.744-0.312-1.49-0.473-2.25-0.66-0.33-1.32-0.66-2-1-1.88-3.03-2-4.25-2-8h-2c-0.11-0.545-0.219-1.09-0.332-1.65-1.01-4.82-2.28-9.39-3.98-14-2.24-7.66-1.87-15.7-1.87-23.6-0.00216-2.24-0.0203-4.47-0.0393-6.71-0.0859-21.4 4.44-40.1 14.2-59.1 0.303-0.59 0.606-1.18 0.917-1.79 15.5-29.8 42.2-53 74.3-63.3 31.7-9.5 67.5-6.99 94.2 14.2zm-109 57.1c-15.6 18.4-20.1 42.3-18.8 65.8 1.07 11.6 4.5 23.3 11 33h2c1.22 1.6 2.38 3.26 3.5 4.94 10.4 14.6 25.7 24 43.3 27.6 20.9 2.72 39.2-1.53 56.4-14.1 14.7-12.4 24.3-30.3 26.6-49.4 1.1-14.7 0.46-29.7-4.79-43.5-0.896-2.5-1.4-4.91-1.9-7.52-7.9-18.4-21.9-29.6-39.7-37.8-28.1-10.3-57.5 0.104-77.5 21z" fill="#0086F7"/>
<path transform="translate(634 363)" d="m0 0c1.98 1.85 1.98 1.85 2.98 3.85 1.1 0.987 2.23 1.94 3.38 2.88 2.62 2.2 4.68 4.3 6.62 7.12 0.804 0.773 0.804 0.773 1.62 1.56 1.38 1.44 1.38 1.44 2.38 4.44 0.66 0.66 1.32 1.32 2 2 4.46 7.09 8.39 14.4 12 22 0.422 0.826 0.843 1.65 1.28 2.5 3.38 6.9 5.22 13.8 6.93 21.3 0.464 3.05 0.464 3.05 1.8 4.21 1.34 9.04 1.19 18.3 1.19 27.4 0.00221 2.34 0.0205 4.68 0.0393 7.02 0.00293 1.51 0.00492 3.03 0.00586 4.54 0.00719 0.687 0.0144 1.37 0.0218 2.08-0.0232 4.98-0.932 9.18-2.25 13.9-0.263 1.48-0.515 2.96-0.75 4.44-3.93 19.6-13.5 37.4-26.2 52.6-0.741 0.893-1.48 1.79-2.25 2.71-19.6 22.8-49 37.6-78.8 41.3-0.849 0.11-1.7 0.219-2.57 0.332-35.2 3.86-70.6-5.26-98.6-27.1-8.3-6.73-15.3-13.8-21.8-22.3-0.909-1.19-0.909-1.19-1.84-2.39-3.64-4.97-6.69-10.2-9.6-15.6-0.355-0.66-0.709-1.32-1.07-2-2.49-4.74-2.49-4.74-2.49-7-0.66-0.33-1.32-0.66-2-1v-4c-0.66-0.33-1.32-0.66-2-1-2.16-4.41-3.24-8.14-4-13-0.317-0.54-0.634-1.08-0.961-1.64-1.56-3.55-1.74-7.15-2.1-11-0.0816-0.803-0.163-1.61-0.247-2.43-0.161-1.59-0.319-3.18-0.474-4.77-0.183-1.84-0.388-3.67-0.599-5.5-0.101-0.879-0.201-1.76-0.305-2.66-0.13-1.11-0.13-1.11-0.262-2.25-0.0508-1.75-0.0508-1.75 0.949-3.75-0.66-0.33-1.32-0.66-2-1h2c0.0198-0.573 0.0396-1.15 0.0601-1.74 1.01-27.8 1.01-27.8 5.94-38.3 0.525-1.58 1.05-3.17 1.56-4.75 6.55-18.1 17.3-33.3 30.4-47.2 0.538-0.602 1.08-1.2 1.63-1.82 45.6-49.1 130-44.9 178-4.02zm-142 43.4c-14.9 15-20.1 37.7-20.7 58.1 0.209 7.6 0.554 16.7 4.25 23.4 0.559 2.02 0.997 4.05 1.44 6.1 0.549 2.2 0.549 2.2 2.56 4.9 0.33 0.99 0.66 1.98 1 3l2 2c0.667 1.33 1.33 2.67 2 4 1.41 1.41 2.82 2.8 4.25 4.19 1.97 2.02 3.64 3.93 5.38 6.12 10.6 12.4 28.5 20.6 44.6 21.9 20.8 1.16 39.9-4.09 55.7-18.2 0.663-0.57 1.33-1.14 2.01-1.73 13.4-12.3 21.7-30.2 23-48.3 0.28-11.6-0.15-23.2-3.28-34.4-0.719-2.59-0.719-2.59-1.22-5.79-0.557-3.11-1.6-4.34-3.5-6.79-0.165-0.846-0.33-1.69-0.5-2.56-0.583-2.84-1.41-3.52-3.5-5.44-0.669-1.33-1.34-2.67-2-4-8.94-14-25.3-23.6-41.2-27.9-27.2-5.64-52.4 2.43-72.3 21.5zm128 49.5v9h1v-9h-1zm-201 34 1 2zm4 14 1 2z" fill="#F94236"/>
<path transform="translate(862,335)" d="m0 0c0.681 0.156 1.36 0.311 2.06 0.472 23 5.43 43 17.3 59.9 33.5 0.704 0.675 1.41 1.35 2.13 2.05 4.69 4.59 4.69 4.59 5.87 6.95 0.66 0.66 1.32 1.32 2 2 1.57 2.35 2.75 4.49 4 7 1.31 2.34 2.66 4.67 4 7h2c0.201 0.882 0.201 0.882 0.407 1.78 0.913 3.42 2.46 6.56 3.91 9.78 8.57 19.4 11.9 37.9 11.9 59.1 0.00221 2.26 0.0205 4.51 0.0393 6.77 0.00293 1.45 0.00492 2.89 0.00586 4.34 0.00411 1.3 0.00822 2.6 0.0125 3.93-0.23 3.15-0.678 4.67-2.24 7.32-0.531 2.36-1 4.74-1.44 7.12-5.6 29.4-23.2 56.4-47.8 73.7-30.4 20.7-66.5 28.4-103 22.2-33.8-6.72-64.2-25.3-83.6-54.2-11.7-18.2-11.7-18.2-14.4-26.8l1-2c-0.66-0.33-1.32-0.66-2-1l1-2c-0.66-0.33-1.32-0.66-2-1-2.17-3.2-2.33-6.39-2.72-10.1-0.195-1.96-0.195-1.96-1.28-3.88-3.63-7.26-2.24-17.4-2.25-25.4-6.75e-4 -0.714-0.00135-1.43-0.00204-2.16 0.0544-36.2 13.9-67.5 39-93.5 32.2-31.3 79.7-43.3 123-32.9zm-85.4 71.3c-5.98 6.35-10.5 14.4-13.7 22.5-0.588 1.43-1.22 2.85-1.9 4.24-2.76 5.64-3.79 10.7-4.25 16.9-0.116 1.24-0.116 1.24-0.234 2.51-0.769 8.84-0.86 17.5 0.609 26.2 0.128 0.762 0.255 1.52 0.387 2.31 1.41 7.67 3.74 15.1 7.49 22 0.99 0.33 1.98 0.66 3 1 1.61 2.04 1.61 2.04 3.31 4.62 11 16 26.8 27.1 46 30.9 21.1 2.5 40.4-1.15 57.6-14 1.38-1.16 2.73-2.35 4.06-3.56 0.757-0.677 1.51-1.35 2.29-2.05 5.69-5.37 9.85-11.2 13.7-17.9 0.474-0.825 0.949-1.65 1.44-2.5 9.78-18.2 8.8-39.7 5.56-59.5-0.33-0.99-0.66-1.98-1-3-0.731-2.54-1.46-5.08-2.18-7.62-0.78-2.6-0.78-2.6-2.82-5.38-0.309-0.779-0.619-1.56-0.938-2.36-6.59-16.4-21.5-26.8-37.3-33.6-28.8-10.9-59.4-2.84-81.2 18.2zm-75.6 70.7 1 2zm1 7 1 3z" fill="#B5B72E"/>
<path transform="translate(1545 355)" d="m0 0c5 4.22 9.51 8.65 13.6 13.8 1.16 1.16 2.32 2.31 3.5 3.44 1.5 1.56 1.5 1.56 3.5 4.56 0.66 0.33 1.32 0.66 2 1 0.357 1.33 0.686 2.66 1 4 0.679 1.32 1.41 2.62 2.18 3.9 0.434 0.727 0.869 1.45 1.32 2.2 0.455 0.75 0.91 1.5 1.38 2.27 3.96 6.57 7.56 13 10.2 20.2 1.69 4.26 3.75 8.35 5.75 12.5 1.21 2.95 1.21 2.95 1.21 6.95-21 8.86-41.9 17.7-63 26.4-15.4 6.36-30.7 12.8-46.1 19.2-10 4.17-20 8.33-30 12.5-1.92 0.792-3.83 1.58-5.75 2.38-3.6 1.49-7.2 2.97-10.8 4.45-1.61 0.664-3.22 1.33-4.83 1.99-1.09 0.447-1.09 0.447-2.21 0.903-3.01 1.25-5.64 2.49-8.37 4.31 1.44 2.47 2.88 4.85 4.62 7.12 1.38 1.88 1.38 1.88 2.38 4.88 1.61 1.77 3.26 3.37 5 5 0.657 0.674 1.31 1.35 1.99 2.04 14.1 13.8 31.6 18.5 51 18.4 19.5-0.562 36.3-7.26 50-21.4 3.91-4.16 7.62-8.4 11-13 5.2 1.72 9.5 4.78 14 7.78 0.859 0.567 1.72 1.13 2.6 1.72 1.81 1.2 3.61 2.4 5.42 3.6 2.77 1.84 5.56 3.67 8.34 5.5 1.76 1.17 3.51 2.33 5.26 3.5 0.837 0.547 1.67 1.09 2.54 1.66 0.765 0.514 1.53 1.03 2.32 1.56 0.678 0.449 1.36 0.898 2.05 1.36 0.477 0.44 0.955 0.881 1.45 1.33 0 4.53-1.85 7.08-4.87 10.3-0.569 0.613-1.14 1.23-1.72 1.86-0.912 0.964-0.912 0.964-1.84 1.95-0.627 0.666-1.25 1.33-1.9 2.02-23.2 24.4-53.4 41.7-87.7 42.9-0.638 0.0258-1.28 0.0516-1.93 0.0781-37.5 1.34-70.8-11.1-98.5-36.5-9.68-9.32-18-21.3-23.6-33.5v-2l-2-1c-1.24-3.17-2-5.58-2-9l-2-1c-2.58-5.06-3.51-9.36-4-15h-1c-2.07-9.48-2.31-18.7-2.26-28.4 0.0107-2.49 6.28e-5 -4.98-0.0127-7.48-0.0118-12.2 0.469-24.1 4.59-35.7 0.33-0.931 0.33-0.931 0.667-1.88 0.663-1.86 1.34-3.71 2.02-5.56 0.358-1.06 0.717-2.11 1.09-3.2 10.6-29.9 32.5-54.6 60.8-68.8 39-18.3 87.6-15.4 122 12.2zm-112 45.8c-0.611 0.445-1.22 0.889-1.85 1.35-9.14 6.83-15.1 19.2-19.1 29.7-0.356 0.914-0.712 1.83-1.08 2.77-1.14 3.99-1.49 7.79-1.73 11.9-0.0638 0.759-0.128 1.52-0.193 2.3-0.411 4.21-0.411 4.21 1.51 7.75 0.738 0.625 0.738 0.625 1.49 1.26 15.6-6.49 31.2-13 46.8-19.5 0.897-0.375 1.79-0.749 2.72-1.14 4.53-1.89 9.07-3.79 13.6-5.7 1.79-0.755 3.59-1.51 5.38-2.26 0.878-0.369 1.76-0.738 2.66-1.12 5.13-2.15 10.3-4.27 15.4-6.36 3.12-1.27 6.23-2.55 9.35-3.83 1.45-0.591 2.89-1.17 4.34-1.75 1.98-0.787 3.95-1.6 5.91-2.41 1.1-0.446 2.21-0.892 3.34-1.35 2.71-1.36 2.71-1.36 3.32-4.25 0.0453-0.765 0.0906-1.53 0.137-2.32-0.66-0.33-1.32-0.66-2-1-0.217-0.99-0.217-0.99-0.438-2-0.186-0.66-0.371-1.32-0.562-2-1.49-0.495-1.49-0.495-3-1-0.302-0.61-0.603-1.22-0.914-1.85-3.86-7.66-15.5-11.6-23.1-14.2-22.5-6.6-44.9 2.18-62 17zm93 7 1 2zm-170 72 1 2zm1 7 1 2z" fill="#F94236"/>
<path transform="translate(1272,202)" d="m0 0h57c-0.33 0.66-0.66 1.32-1 2-0.0952 2.06-0.124 4.12-0.123 6.18-0.00115 0.644-0.00231 1.29-0.0035 1.95-0.00267 2.18 0.00186 4.36 0.00629 6.53-4.36e-4 1.57-0.00131 3.14-0.00259 4.71-0.00225 4.33 0.00178 8.66 0.00678 13 0.0043 4.66 0.00286 9.32 0.0021 14-5.25e-4 8.08 0.00262 16.2 0.00824 24.2 0.00811 11.7 0.0107 23.4 0.012 35.1 0.00219 19 0.00885 37.9 0.0183 56.9 0.00917 18.4 0.0163 36.8 0.0205 55.3 2.63e-4 1.13 5.25e-4 2.27 7.96e-4 3.44 0.00131 5.69 0.00257 11.4 0.00381 17.1 0.0104 47.2 0.0283 94.5 0.0503 142h-56c-1.1-3.31-1.13-5.76-1.13-9.25-0.00261-1.32-0.00522-2.64-0.0079-3.99 0.00216-1.47 0.00442-2.94 0.00676-4.41-0.00115-1.56-0.00274-3.11-0.00473-4.67-0.00419-4.29-0.0021-8.58 9.86e-4 -12.9 0.00226-4.62-0.00123-9.24-0.00398-13.9-0.00446-9.05-0.00348-18.1-5.87e-4 -27.2 0.00225-7.36 0.00257-14.7 0.00148-22.1-1.53e-4 -1.05-3.06e-4 -2.09-4.64e-4 -3.17-3.2e-4 -2.12-6.44e-4 -4.25-9.73e-4 -6.37-0.00285-19.9 4.31e-4 -39.9 0.0058-59.8 0.00447-17.1 0.00369-34.2-9.19e-4 -51.3-0.00535-19.9-0.00746-39.7-0.00439-59.6 3.19e-4 -2.12 6.33e-4 -4.23 9.43e-4 -6.35 1.54e-4 -1.04 3.09e-4 -2.08 4.68e-4 -3.15 8.65e-4 -7.35-5.97e-4 -14.7-0.00295-22.1-0.0028-8.95-0.00206-17.9 0.00328-26.9 0.00264-4.57 0.00364-9.14 3.51e-4 -13.7-0.00296-4.18-0.00137-8.36 0.00398-12.5 0.00112-1.52 5.34e-4 -3.03-0.00188-4.55-0.00301-2.05 6.54e-4 -4.1 0.00472-6.15 1.62e-4 -1.14 3.25e-4 -2.29 4.92e-4 -3.46 0.125-2.66 0.125-2.66 1.13-4.66z" fill="#B6B82E"/>
<path transform="translate(65,252)" d="m0 0c0.495 1.98 0.495 1.98 1 4h2v9c0.298 1.34 0.622 2.68 1 4-0.99 0.66-1.98 1.32-3 2-0.495 1.49-0.495 1.49-1 3-1.07 0.199-1.07 0.199-2.15 0.402-0.919 0.177-1.84 0.353-2.79 0.535-0.917 0.174-1.83 0.348-2.78 0.527-2.24 0.312-2.24 0.312-3.29 1.54-0.207 3.72-0.32 7.44-0.426 11.2-0.646 4.31-1.84 6.48-4.57 9.83-3.64 2.43-5.71 2.16-10 2 0.186 0.949 0.371 1.9 0.562 2.88 0.438 3.12 0.438 3.12-0.562 5.12-0.356 1.66-0.692 3.33-1 5h-5c-0.33 2.97-0.66 5.94-1 9h-3v2h-2c-0.33 0.66-0.66 1.32-1 2v-2c-1.98 0.495-1.98 0.495-4 1 1.48 0.99 1.48 0.99 3 2 0.293 2.38 0.293 2.38 0.188 5.12-0.0271 0.91-0.0541 1.82-0.082 2.76-0.0348 0.699-0.0696 1.4-0.105 2.12 0.33-2.64 0.66-5.28 1-8 0.66 0.33 1.32 0.66 2 1 0.391 2.06 0.507 4.09 0.656 6.19 0.113 0.598 0.227 1.2 0.344 1.81 0.66 0.33 1.32 0.66 2 1v2l3 1c-0.99 0.99-0.99 0.99-2 2-0.165 1.01-0.33 2.02-0.5 3.06-0.165 0.969-0.33 1.94-0.5 2.94l-2 1c-0.309 1.15-0.619 2.31-0.938 3.5-0.526 1.73-0.526 1.73-1.06 3.5l-3 1c-0.33 1.65-0.66 3.3-1 5h-2v2c-0.598 0.0619-1.2 0.124-1.81 0.188-3.05 1.13-3.6 3.06-5.19 5.81l-3 1c1.04 16.3 1.04 16.3 3.19 32.5 0.957 5.54 1.41 11.3-1.19 16.5-0.0397 1.67-0.0438 3.33 0 5 0.66 0.33 1.32 0.66 2 1 1.97 1.97 1.66 5.35 2 8 1.65 0.33 3.3 0.66 5 1v11c0.66 0.33 1.32 0.66 2 1 0.33-0.99 0.66-1.98 1-3 2.93 1.01 5.51 2.13 8 4 0.841 3.1 1.08 4.9 1 8 0.0116 0.831 0.0232 1.66 0.0352 2.52 0.0238 2.16 0.00988 4.32-0.0352 6.48h3v7h2c0.33-0.99 0.66-1.98 1-3v4c0.99 0.66 1.98 1.32 3 2 0.293 2.16 0.293 2.16 0.188 4.62l-0.082 2.48c-0.0522 0.94-0.0522 0.94-0.105 1.9h-3v-8c-0.66-0.33-1.32-0.66-2-1v9c3.3 0.66 6.6 1.32 10 2 0.495 3.47 0.495 3.47 1 7h4c4.63 9.48 4.63 9.48 4 14-0.124 0.908-0.248 1.82-0.375 2.75-0.206 0.743-0.413 1.48-0.625 2.25-0.66 0.33-1.32 0.66-2 1h7c0.66 1.98 1.32 3.96 2 6h6v2h2c0.495 3.47 0.495 3.47 1 7 1.42-0.309 1.42-0.309 2.88-0.625 1.03-0.124 2.06-0.247 3.12-0.375 2 2 2 2 2 5h5c0.33 0.66 0.66 1.32 1 2 2.31 0.731 4.65 1.4 7 2 0.103 0.763 0.206 1.53 0.312 2.31 0.768 3 1.13 3.98 3.69 5.69 3.61 0.73 3.61 0.73 7 1v2h8c0.268 0.639 0.536 1.28 0.812 1.94 1.07 2.39 1.07 2.39 4.19 3.06v2c0.639 0.124 1.28 0.247 1.94 0.375 1.02 0.309 1.02 0.309 2.06 0.625 0.33 0.66 0.66 1.32 1 2 0.66 0.165 1.32 0.33 2 0.5 0.66 0.165 1.32 0.33 2 0.5 0.33 0.66 0.66 1.32 1 2 0.33-0.66 0.66-1.32 1-2 2.67-0.778 5.28-1.42 8-2 0.886-0.2 1.77-0.4 2.68-0.605 7.05-1.53 7.05-1.53 9.32-0.395v3c-3.67 0.853-7.04 1.11-10.8 1.06-0.976-0.00902-1.95-0.018-2.96-0.0273-1.1-0.0174-1.1-0.0174-2.23-0.0352v2h2v2c-2.31 0.33-4.62 0.66-7 1 3.67 1.18 7.17 1.07 11 1v2c1.16 0.144 2.31 0.289 3.5 0.438 0.728 0.0915 1.46 0.183 2.21 0.277 1.48 0.184 2.95 0.364 4.43 0.539 3.66 0.439 7.26 0.958 10.9 1.75-0.33 0.66-0.66 1.32-1 2-1.32 0.33-2.64 0.66-4 1 2.97 0.33 5.94 0.66 9 1v2c7 1.8 13.6 2.37 20.8 2.56 2.03 0.06 4.05 0.124 6.08 0.191 1.33 0.0359 1.33 0.0359 2.68 0.0725 2.26 0.162 4.25 0.547 6.42 1.17 0.33-1.32 0.66-2.64 1-4 1.41-0.224 2.83-0.428 4.25-0.625 1.18-0.174 1.18-0.174 2.39-0.352 2.68-0.0266 4.09 0.611 6.36 1.98v2h2v2c2.85 0.814 5.37 1.12 8.33 1.1 1.2-0.00483 1.2-0.00483 2.42-0.00977 0.825-0.00838 1.65-0.0168 2.5-0.0254 0.84-0.00451 1.68-0.00902 2.55-0.0137 2.07-0.0117 4.14-0.0297 6.2-0.0488v-3h4c0.33-1.65 0.66-3.3 1-5 3.63-0.33 7.26-0.66 11-1v-2h6v5h2v-5h2v-2c-9.55-0.728-17.9 1.44-27 4 0.33-1.98 0.66-3.96 1-6 10.6-3.91 22-5.66 33-2 0.33-0.66 0.66-1.32 1-2h3v5h-3c0.33 1.98 0.66 3.96 1 6h3v-2c0.909-0.147 0.909-0.147 1.84-0.297 6.34-1.13 12.4-2.73 18.2-5.7 0.33-0.66 0.66-1.32 1-2 2.29-0.633 2.29-0.633 5.06-1.12 0.919-0.168 1.84-0.335 2.79-0.508 0.71-0.121 1.42-0.242 2.15-0.367v-2c1.06-0.482 2.12-0.964 3.21-1.46 1.39-0.638 2.78-1.28 4.16-1.91 0.699-0.317 1.4-0.634 2.12-0.961 4.06-1.87 4.06-1.87 7.51-4.66l1-3c0.722-0.0825 1.44-0.165 2.19-0.25 3.37-0.898 5.23-2.46 7.81-4.75 0.66 0.33 1.32 0.66 2 1v1c0.66 0.33 1.32 0.66 2 1-42 34.9-94.5 47.9-149 43.5-35.4-3.51-69.6-15.8-98.5-36.5l-1.78-1.27c-8.27-6-15.8-12.7-23.2-19.7-0.927-0.874-1.85-1.75-2.81-2.65-15.1-14.6-27.6-32.6-37.2-51.4v-2c-0.66-0.33-1.32-0.66-2-1-2.33-3.64-3.03-7.84-4-12h-2c-0.33-2.64-0.66-5.28-1-8h-2c-0.182-0.617-0.364-1.23-0.551-1.87-0.251-0.847-0.503-1.69-0.762-2.57-0.244-0.824-0.487-1.65-0.738-2.5-0.526-1.7-1.06-3.4-1.65-5.08-1.93-5.56-3.3-11.1-4.42-16.9-0.169-0.821-0.338-1.64-0.512-2.49-8.55-43.1-0.191-89.3 20.6-128 0.352-0.662 0.704-1.32 1.07-2.01 6.04-11.3 12.6-23 21.9-32 1.18-1.32 2.35-2.66 3.5-4 7-8 7-8 11.5-8z" fill="#0089F8"/>
<path transform="translate(1018,379)" d="m0 0v8c0.66 0.33 1.32 0.66 2 1-0.66 0.66-1.32 1.32-2 2-2.08 2.71-2.08 2.71-2.44 5.12-0.186 0.619-0.371 1.24-0.562 1.88-0.99 0.33-1.98 0.66-3 1v5c-0.99 0.33-1.98 0.66-3 1-0.984 1.76-0.984 1.76-1.62 3.88-0.24 0.699-0.48 1.4-0.727 2.12-0.214 0.663-0.428 1.33-0.648 2.01-0.33 0.99-0.66 1.98-1 3-0.0188 1.35 0.00433 2.71 0.0625 4.06-0.0625 3.94-0.0625 3.94-2.06 5.94-0.66-3.3-1.32-6.6-2-10-0.365 2.37-0.718 4.75-1.06 7.12-0.104 0.665-0.208 1.33-0.314 2.02-0.597 4.2-0.545 7.72 0.377 11.9 2.37-2.95 2.37-2.95 2-7 0.99-0.495 0.99-0.495 2-1 0.125 6.75 0.125 6.75-1 9 3.47-0.495 3.47-0.495 7-1 0.33 1.65 0.66 3.3 1 5-4.72 0.965-7.69 1.15-12-1v5c2.48-0.99 2.48-0.99 5-2 0.33 7.26 0.66 14.5 1 22-2.48 0.495-2.48 0.495-5 1 0.0722 0.846 0.144 1.69 0.219 2.56 0.85 10.4 0.85 10.4 0.719 15.1-0.319 3.39-0.319 3.39 2.06 5.31 0.301 2.37 0.495 4.74 0.625 7.12 0.0748 1.28 0.15 2.56 0.227 3.88 0.049 0.987 0.098 1.97 0.148 2.99h5c0.0142 0.568 0.0284 1.14 0.043 1.72 0.333 5.38 1.34 8.61 4.8 12.8 1.16 1.51 1.16 1.51 2.16 4.51 0.66 0.33 1.32 0.66 2 1 0.414 2.5 0.414 2.5 0.625 5.56 0.0748 1.01 0.15 2.02 0.227 3.07 0.049 0.782 0.098 1.56 0.148 2.37h3v2h3c0.33 1.98 0.66 3.96 1 6 0.99 0.33 1.98 0.66 3 1-0.33 0.66-0.66 1.32-1 2 0.619 0.206 1.24 0.413 1.88 0.625 2.97 1.92 3.26 4.04 4.12 7.38 0.626-0.0116 1.25-0.0232 1.9-0.0352 1.23-0.0135 1.23-0.0135 2.48-0.0273 0.812-0.0116 1.62-0.0232 2.46-0.0352 2.16 0.0977 2.16 0.0977 4.16 1.1 0.33 0.99 0.66 1.98 1 3 0.66 0.33 1.32 0.66 2 1 0.625 2.06 0.625 2.06 1 4 5.48 1.95 5.48 1.95 11 1v-3c1.65 0.33 3.3 0.66 5 1-0.66 1.32-1.32 2.64-2 4h-3c-0.33 0.99-0.66 1.98-1 3h-5v2h15c0.33-0.99 0.66-1.98 1-3 9.31 0.865 9.31 0.865 12.9 1.56 5.02 0.703 10.1 0.511 15.1 0.438 0.0427 1.67 0.0406 3.33 0 5-0.33 0.33-0.66 0.66-1 1-7.45-0.16-14.7-1.35-22-3 0.778 2.01 0.778 2.01 2 4 3.06 0.816 3.06 0.816 6 1v3c3.96 0.33 7.92 0.66 12 1v-2c7.18-2.33 14.4-4.25 22-3 2.32 1.27 2.32 1.27 4 3v4c2.31-0.33 4.62-0.66 7-1 0.33-1.65 0.66-3.3 1-5h8c0.33 0.99 0.66 1.98 1 3 1.11-0.33 2.23-0.66 3.38-1 4.89-1.24 9.61-1.18 14.6-1v3c-27.7 13-57.3 14.9-86.3 4.5-17.4-6.83-32.4-16.5-45.7-29.5-0.864-0.802-1.73-1.6-2.62-2.43-9.19-8.73-21.5-22.5-23.9-35.3-0.156-0.744-0.312-1.49-0.473-2.25-0.66-0.33-1.32-0.66-2-1-1.88-3.03-2-4.25-2-8h-2c-0.164-0.818-0.164-0.818-0.332-1.65-1.01-4.82-2.28-9.39-3.98-14-2.24-7.66-1.87-15.7-1.87-23.6-0.00216-2.24-0.0203-4.47-0.0393-6.71-0.115-28.6 8.87-57.6 27.2-80.1 2.28-1.5 3.31-2 6-2z" fill="#0089F8"/>
<path transform="translate(1100,365)" d="m0 0c10.2-0.183 20.1-0.298 30.1 1.55 4.29 0.669 8.52 0.621 12.9 0.445v5h-5v4c6.89 2.41 6.89 2.41 14 4v3c1.05-0.206 2.1-0.413 3.19-0.625 3.81-0.375 5.48-0.0913 8.81 1.62v2h3v5c0.619 0.0619 1.24 0.124 1.88 0.188 0.701 0.268 1.4 0.536 2.12 0.812 0.227 0.784 0.454 1.57 0.688 2.38 1.04 2.75 1.04 2.75 3.33 3.59 2.31 0.754 4.63 1.42 6.98 2.04 1.48 0.495 1.48 0.495 3 1v-5c-1.32-0.33-2.64-0.66-4-1 0.0871-1.46 0.195-2.92 0.312-4.38 0.058-0.812 0.116-1.62 0.176-2.46 0.512-2.16 0.512-2.16 3.51-4.16 6.33-0.333 6.33-0.333 9 1 0.33-0.66 0.66-1.32 1-2h6c0.0606 0.638 0.121 1.28 0.184 1.93 0.0838 0.826 0.168 1.65 0.254 2.5 0.0812 0.824 0.162 1.65 0.246 2.5 0.106 2.05 0.106 2.05 1.32 3.07 0.126 2.31 0.176 4.62 0.188 6.94 0.0142 1.27 0.0284 2.53 0.043 3.84-0.23 3.22-0.23 3.22-2.23 5.22-2.38 0.195-2.38 0.195-5.12 0.125-0.91-0.018-1.82-0.0361-2.76-0.0547-0.699-0.0232-1.4-0.0464-2.12-0.0703v-2h-2v-2h-2v-2h-2c-0.33 1.65-0.66 3.3-1 5-1.32 0.33-2.64 0.66-4 1v2h5c0.671 1.62 1.34 3.25 2 4.88 0.371 0.905 0.743 1.81 1.12 2.74 0.875 2.38 0.875 2.38 0.875 4.38 1.98 0.33 3.96 0.66 6 1 1.43 4.67 2.4 9.13 3 14h2c2.15 3.23 2.2 4.28 2 8-1.65-0.33-3.3-0.66-5-1-0.495 1.49-0.495 1.49-1 3-2.56 1.69-2.56 1.69-5 3 0.33 0.66 0.66 1.32 1 2 0.0831 1.38 0.107 2.75 0.0977 4.13-0.00483 1.21-0.00483 1.21-0.00977 2.44-0.0126 1.26-0.0126 1.26-0.0254 2.55-0.00451 0.849-0.00902 1.7-0.0137 2.57-0.0118 2.1-0.0297 4.2-0.0488 6.3 0.642-5.7 1.12-11.3 1-17h4c0.0248 4.63 0.0429 9.25 0.0549 13.9 0.00502 1.57 0.0118 3.15 0.0205 4.72 0.0122 2.26 0.0178 4.53 0.0222 6.79 0.00516 0.701 0.0103 1.4 0.0156 2.12 3.79e-4 3.31-0.0881 6.32-1.11 9.48 0.99-0.33 1.98-0.66 3-1 0.806-2.11 0.806-2.11 1.19-4.56 0.159-0.826 0.317-1.65 0.48-2.5 0.11-0.638 0.219-1.28 0.332-1.93h1c-0.33 3.96-0.66 7.92-1 12h-3v12h3v8c-3.39 2.08-6.05 2.43-10 2-0.66-0.99-1.32-1.98-2-3-0.351 0.825-0.701 1.65-1.06 2.5-0.639 0.825-1.28 1.65-1.94 2.5-3.43 0.361-5.88 0.559-9-1 0.0232 0.568 0.0464 1.14 0.0703 1.72 0.018 0.772 0.0361 1.54 0.0547 2.34 0.0232 0.754 0.0464 1.51 0.0703 2.29-0.195 2.65-0.195 2.65-2.2 9.65-4.95 0.33-9.9 0.66-15 1 1-2 1-2 4-3-1.98-0.33-3.96-0.66-6-1 0.589-3.56 1.94-5.37 4.38-8 14.5-15.8 21.3-37.6 20.8-58.8-0.599-10.3-1.59-20-5.38-29.7-0.847-2.65-0.954-4.75-0.805-7.52-0.66-0.33-1.32-0.66-2-1-0.343-1.33-0.676-2.66-1-4-0.66-0.66-1.32-1.32-2-2-0.536-1.01-1.07-2.02-1.62-3.06-7.9-13.9-23.2-24.1-38.4-28.5-18-4.49-35.9-1.73-51.8 7.26-3.65 1.5-5.47 1.35-9.23 0.328 0.33-0.66 0.66-1.32 1-2h2c0.33-0.99 0.66-1.98 1-3 3.44-3 3.44-3 6-3 0.33-1.65 0.66-3.3 1-5 0.99-0.33 1.98-0.66 3-1v3h2v-2c2.71-1.35 5.01-1.07 8-1 0.33-1.32 0.66-2.64 1-4h2v-2c0.71-0.133 1.42-0.266 2.15-0.402 0.919-0.177 1.84-0.353 2.79-0.535 0.917-0.174 1.83-0.348 2.78-0.527 2.24-0.312 2.24-0.312 3.29-1.54-2.31-0.33-4.62-0.66-7-1-0.66-1.65-1.32-3.3-2-5z" fill="#0089F7"/>
<path transform="translate(191,224)" d="m0 0h15c0.99 2.97 0.99 2.97 2 6 1.5 1.5 2.99 1.33 5.06 1.56 1.3 0.144 2.6 0.289 3.94 0.438v-3c3.38-0.285 6.63-0.459 10 0 1.81 2.44 1.81 2.44 3 5 2.59 0.887 2.59 0.887 5 1v-2c1.18-0.0619 2.35-0.124 3.56-0.188 0.661-0.0348 1.32-0.0696 2-0.105 2.43 0.293 2.43 0.293 5.68 1.79 4.1 1.86 7.75 1.85 12.2 1.69 0.732-0.0135 1.46-0.0271 2.22-0.041 1.78-0.0349 3.56-0.0887 5.35-0.146 0.495 1.49 0.495 1.49 1 3 0.99 0.33 1.98 0.66 3 1v3h5c0.33 0.99 0.66 1.98 1 3 1.98 0.717 3.98 1.38 6 2l2 2c2.57 0.648 2.57 0.648 5 1 0.33 1.32 0.66 2.64 1 4 3.3 0.33 6.6 0.66 10 1 0.351 1.44 0.701 2.89 1.06 4.38 1.05 3.45 1.05 3.45 3.7 5.67 2.14 0.621 2.14 0.621 5.24 0.957v3c0.99-0.33 1.98-0.66 3-1-0.66-0.66-1.32-1.32-2-2 0.99-0.66 1.98-1.32 3-2 0.33-0.66 0.66-1.32 1-2h4c0.33-0.66 0.66-1.32 1-2 1.56-1.12 3.17-2.18 4.81-3.19 0.873-0.55 1.75-1.1 2.64-1.67 2.54-1.14 2.54-1.14 4.87-0.82 0.83 0.335 0.83 0.335 1.68 0.676-3.61 6.1-8.47 10.9-13.4 15.9-0.846 0.879-1.69 1.76-2.56 2.66-1.23 1.25-1.23 1.25-2.49 2.52-0.744 0.758-1.49 1.52-2.26 2.3-2.68 1.97-3.99 2.13-7.25 1.65-2.04-1.58-2.04-1.58-4.19-3.81-25.2-23.7-62.8-34.4-96.7-33.5-14.8 0.684-29.2 3.07-43.1 8.07-0.9 0.322-1.8 0.644-2.73 0.976-1.81 0.652-3.61 1.32-5.42 1.99-0.833 0.304-1.67 0.608-2.52 0.921-0.747 0.279-1.49 0.559-2.26 0.847-2.4 0.546-3.81 0.261-6.12-0.519v-2h6v-2c-0.66-0.33-1.32-0.66-2-1 1.45-0.681 1.45-0.681 2.94-1.38 3.13-1.28 3.13-1.28 4.06-3.62 2.33-0.339 4.67-0.672 7-1l2-2c0.66 0.33 1.32 0.66 2 1v-2c6.44-0.495 6.44-0.495 13-1v-2c2.96-1.48 5.74-1.06 9-1v-2h6v2h2v-6h6v-2c-1.09 0.0206-2.19 0.0412-3.31 0.0625-3.69-0.0625-3.69-0.0625-6.69-1.06v2c0.66 0.66 1.32 1.32 2 2-1.04 0.133-2.07 0.266-3.14 0.402-1.37 0.178-2.74 0.357-4.11 0.535-0.682 0.087-1.36 0.174-2.07 0.264-2.66 0.348-5.27 0.693-7.87 1.36-2.23 0.539-4.27 0.534-6.56 0.5-0.799-0.00902-1.6-0.018-2.42-0.0273-0.603-0.0116-1.21-0.0232-1.83-0.0352-0.33-0.99-0.66-1.98-1-3 0.33-0.66 0.66-1.32 1-2 2.97 0.33 5.94 0.66 9 1v-2c5.28-0.66 10.6-1.32 16-2 0.33-1.32 0.66-2.64 1-4z" fill="#0089F8"/>
<path transform="translate(1007,633)" d="m0 0c1.69 2 1.69 2 3 4 1.02 0.217 1.02 0.217 2.06 0.438 0.639 0.186 1.28 0.371 1.94 0.562 1.52 2.89 2 4.72 2 8 2.97 0.33 5.94 0.66 9 1v5h3c0.0864 0.771 0.173 1.54 0.262 2.34 0.141 1 0.281 2.01 0.426 3.04 0.128 0.998 0.255 2 0.387 3.02 0.672 2.81 0.672 2.81 3.32 3.89 0.86 0.235 1.72 0.469 2.61 0.711 0.99 0.33 1.98 0.66 3 1 0.227 0.949 0.454 1.9 0.688 2.88 0.935 3.19 0.935 3.19 3.14 4.01 1.44 0.45 2.89 0.893 4.34 1.33 1.83 0.785 1.83 0.785 3.08 3.41 0.247 0.784 0.495 1.57 0.75 2.38 2.88 1.29 5.87 1.23 9 1 0.804-0.351 1.61-0.701 2.44-1.06 3.21-1.17 5.28-0.7 8.56 0.0625v-3h4v5h-4c-0.33 0.99-0.66 1.98-1 3v-2c-2.97 0.99-5.94 1.98-9 3 1.11 0.0825 2.23 0.165 3.38 0.25 1.2 0.247 2.39 0.495 3.62 0.75 0.258 0.65 0.516 1.3 0.781 1.97 1.12 2.41 1.12 2.41 4.48 2.86 1.28 0.139 2.55 0.278 3.87 0.422 1.28 0.15 2.56 0.299 3.88 0.453 0.987 0.098 1.97 0.196 2.99 0.297 0.33 0.99 0.66 1.98 1 3 0.59-0.00524 1.18-0.0105 1.79-0.0159 2.67-0.0208 5.35-0.0338 8.02-0.0466 0.929-0.00838 1.86-0.0168 2.81-0.0254 0.893-0.00322 1.79-0.00645 2.71-0.00977 0.822-0.00524 1.64-0.0105 2.49-0.0159 2.18 0.114 2.18 0.114 5.18 1.11 0.587 0.673 1.17 1.35 1.78 2.04 3 2.65 4.78 2.42 8.74 2.35 1.25-0.0129 2.5-0.0258 3.79-0.0391 1.3-0.0335 2.6-0.067 3.95-0.102 1.98-0.0271 1.98-0.0271 3.99-0.0547 3.25-0.0471 6.51-0.113 9.76-0.195 0.144-0.763 0.289-1.53 0.438-2.31 0.562-2.69 0.562-2.69 1.56-5.69-0.887 0.144-1.77 0.289-2.69 0.438-5.74 0.83-11.5 1.15-17.3 1.56v2c-1.48-0.495-1.48-0.495-3-1v-4h3v-2c10.7-2.16 21.1-2.21 32-2v4l2 1h-4v4c5.12-1.07 10-2.31 15-4h2c0.392-0.454 0.784-0.908 1.19-1.38 2.61-2.34 5.45-2.8 8.81-3.62 0.33 0.99 0.66 1.98 1 3-33 17.5-70.9 22.7-107 11.7-31.8-10.3-56.7-32.6-72.7-61.9-1.13-2.26-2.23-4.52-3.26-6.82 4.02-2.28 6.48-2.15 11-1z" fill="#0089F8"/>
<path transform="translate(669,448)" d="m0 0 1 2c0.99 0.33 1.98 0.66 3 1-0.0116 1.17-0.0232 2.34-0.0352 3.54-0.00938 1.55-0.0185 3.1-0.0273 4.64-0.0126 1.15-0.0126 1.15-0.0254 2.33-0.0135 3.14-0.00496 6.02 0.619 9.11 0.623 3.16 0.322 5.99 0.0312 9.19-0.102 1.16-0.204 2.32-0.309 3.52-0.0838 0.88-0.168 1.76-0.254 2.67h-1c-0.105 0.543-0.211 1.09-0.32 1.65-1.03 5.3-2.1 10.6-3.18 15.9-0.398 1.96-0.778 3.93-1.15 5.9-3.19 15-11.5 29.1-23.3 38.9-2.07 1.69-2.07 1.69-4 3.62-4.24 4.08-7.35 5.91-13.2 6.6-0.589 0.16-1.18 0.32-1.79 0.484-0.33 0.99-0.66 1.98-1 3-4.99 3.07-9.43 3.28-15 2 0.99-0.495 0.99-0.495 2-1 0.621-1.81 0.621-1.81 1-4 0.186-0.908 0.371-1.82 0.562-2.75 0.144-0.743 0.289-1.49 0.438-2.25 0.557 0.268 1.11 0.536 1.69 0.812 1.14 0.0928 1.14 0.0928 2.31 0.188 2.87-2.46 4.9-4.85 7-8h1v-5c1.49-0.495 1.49-0.495 3-1 0.733-2.02 0.733-2.02 1-4-1.32-0.33-2.64-0.66-4-1 0.33-1.98 0.66-3.96 1-6 1.98-0.495 1.98-0.495 4-1v-2c-1.98 0.495-1.98 0.495-4 1 0.576-2.39 1.22-4.67 2-7 5.94-0.495 5.94-0.495 12-1 0.33-1.32 0.66-2.64 1-4 2.06-1.25 2.06-1.25 4-2v-2c-0.66-0.66-1.32-1.32-2-2 0.766-2.9 1.24-4.64 3-7 3.88-1.98 7.97-3.38 12.3-2.56 0.833 0.278 0.833 0.278 1.68 0.562 1.94-2.41 3.02-4.16 2.94-7.3-0.208-1.61-0.445-3.21-0.715-4.81-0.0748-0.624-0.15-1.25-0.227-1.89 0.33-0.33 0.66-0.66 1-1-0.165-0.619-0.33-1.24-0.5-1.88-0.5-2.12-0.5-2.12 0.5-5.12l-2-1h3v-2c-3.63 0.33-7.26 0.66-11 1l-1-2c2.87-3.49 4.84-5.29 9.31-5.81 1.83-0.0928 1.83-0.0928 3.69-0.188v-11h3c0.33-1.32 0.66-2.64 1-4-0.99-0.33-1.98-0.66-3-1h2c0.33-1.65 0.66-3.3 1-5z" fill="#F74337"/>
<path transform="translate(346,414)" d="m0 0h2v5c-0.99 0.33-1.98 0.66-3 1 2.64 0.33 5.28 0.66 8 1 0.33 3.3 0.66 6.6 1 10h2c0.196 4.48 0.38 8.96 0.562 13.4 0.0561 1.28 0.112 2.56 0.17 3.88 0.0483 1.21 0.0967 2.43 0.146 3.68 0.0471 1.13 0.0943 2.25 0.143 3.41-0.0217 2.59-0.0217 2.59-1.02 3.59-2.33 0.0409-4.67 0.0424-7 0-0.33 0.66-0.66 1.32-1 2v-2h-3c-0.99 2.97-1.98 5.94-3 9 1.98-1.65 3.96-3.3 6-5-0.33 1.65-0.66 3.3-1 5-0.99 0.33-1.98 0.66-3 1v4c-3.47 0.495-3.47 0.495-7 1v3h-2c-0.33 1.65-0.66 3.3-1 5-6.75-0.875-6.75-0.875-9-2 1.53-3.9 3.19-7.73 4.88-11.6 4.78-11.1 7.7-21.4 9.12-33.4 0.867-6.73 0.867-6.73 2-9h-130c-0.33-1.98-0.66-3.96-1-6 1.32 0.234 1.32 0.234 2.68 0.473 1.2 0.195 2.4 0.389 3.64 0.59 1.17 0.197 2.34 0.394 3.55 0.598 3.06 0.362 5.82 0.228 8.88-0.119 7.46-0.725 14.9-0.772 22.4-0.857 1.53-0.0206 3.06-0.0416 4.59-0.063 3.99-0.0547 7.99-0.104 12-0.153 4.09-0.0506 8.18-0.106 12.3-0.161 8-0.107 16-0.209 24-0.307v-1c14-1.16 28-2.27 42-3v-2zm-6 17 1 2z" fill="#0089F8"/>
<path transform="translate(69,347)" d="m0 0c1.26 3.88 0.326 5.76-1.19 9.49-1.71 5.28-1.97 10.9-2.5 16.4-0.13 1.22-0.259 2.43-0.393 3.68-1.17 11.4-0.938 22.2 0.197 33.6 0.196 2.01 0.375 4.01 0.553 6.02 0.639 6.53 1.32 11.9 4.33 17.8 0.511 1.62 0.994 3.24 1.44 4.88 1.84 6.37 4.58 12.2 7.56 18.1 2 4 2 4 2.88 6 1.09 2.16 1.09 2.16 3.25 4.06 1.88 1.94 1.88 1.94 1.88 4.94 1.62 1.71 3.3 3.37 5 5 1.42 1.71 2.81 3.44 4.19 5.19 13.1 16.1 29.3 28.6 47.8 37.8 0.948 0.475 0.948 0.475 1.92 0.959 7.99 3.92 16.2 6.86 24.7 9.35 1.23 0.364 1.23 0.364 2.49 0.735 12 3.34 24.1 4.32 36.5 4.26 1.31-0.00564 2.62-0.0113 3.97-0.0171 36.5-0.454 71-12.9 97.1-38.9 1.11-1.14 2.22-2.28 3.31-3.44 0 3 0 3-2.34 5.7-1.01 1-2.02 2-3.04 2.99-0.508 0.511-1.02 1.02-1.54 1.55-3.82 3.76-3.82 3.76-6.09 3.76-0.33 0.99-0.66 1.98-1 3-3.8 3.53-7.3 5.78-12 8-1.73 0.952-3.46 1.91-5.19 2.88-12.5 6.84-25 11.8-39 14.5-2.67 0.329-2.67 0.329-3.77 1.61-9.04 1.54-18.4 1.15-27.6 1.13-2.56-0.00537-5.11-1.88e-5 -7.67 0.00635-1.65-6.61e-4 -3.3-0.00194-4.96-0.00391-1.13 0.00304-1.13 0.00304-2.27 0.00613-7.12-0.031-13.9-0.261-20.5-3.14-2.5-0.633-4.99-1.23-7.5-1.81-9.35-2.25-18.2-5.16-26.5-10.2-2.19-0.696-2.19-0.696-4-1 0.33 0.99 0.66 1.98 1 3-4.02-1.34-6.04-3.04-9-6-4.5-2.8-7.73-3.32-13-3-0.067-0.589-0.134-1.18-0.203-1.79-1.11-3.09-2.81-3.9-5.55-5.65-3.87-2.59-7.07-5.14-10.2-8.56-2.14-2.08-4.28-4.16-6.43-6.23-1.57-1.77-1.57-1.77-1.57-3.77-0.831-0.11-1.66-0.219-2.52-0.332-1.09-0.159-2.17-0.317-3.29-0.48-1.62-0.226-1.62-0.226-3.27-0.457-3.02-0.757-4.12-1.24-5.92-3.73-0.875-3-0.875-3-1-6 1.44-1.88 1.44-1.88 3-3-1.65-0.33-3.3-0.66-5-1v-3h3c-0.578-0.495-1.16-0.99-1.75-1.5-3.51-3.89-6.05-8.16-6.5-13.4 0.0825-0.681 0.165-1.36 0.25-2.06v-1c-1.32-0.66-2.64-1.32-4-2 0.0348-1.13 0.0696-2.26 0.105-3.43 0.0281-1.48 0.0554-2.96 0.082-4.45 0.0251-0.746 0.0503-1.49 0.0762-2.26 0.0662-2.43 0.0662-2.43-0.264-5.86-0.99-0.66-1.98-1.32-3-2-0.432-2.06-0.432-2.06-0.512-4.57-0.0354-0.896-0.0709-1.79-0.107-2.71-0.0226-0.937-0.0451-1.87-0.0684-2.84-0.0342-0.945-0.0683-1.89-0.104-2.86-0.0826-2.34-0.152-4.67-0.209-7.01h-2c-0.797-4.91-1.14-9.58-1.12-14.6-0.00258-1.26-0.00516-2.52-0.00781-3.82 0.121-3.3 0.504-6.38 1.13-9.62h-2v-4h3c-0.0722-0.615-0.144-1.23-0.219-1.86-0.0928-0.808-0.186-1.62-0.281-2.45-0.0928-0.801-0.186-1.6-0.281-2.43-0.219-2.26-0.219-2.26-0.219-5.26-0.33-0.99-0.66-1.98-1-3 0.0862-2.23 0.239-4.46 0.438-6.69 0.102-1.18 0.204-2.36 0.309-3.57 0.126-1.36 0.126-1.36 0.254-2.74h2v-4h2v-2c1.32-0.33 2.64-0.66 4-1z" fill="#0086F1"/>
<path transform="translate(1188,553)" d="m0 0c0.168 1.79 0.334 3.58 0.5 5.38 0.0928 0.998 0.186 2 0.281 3.02 0.219 2.6 0.219 2.6 0.219 4.6 1.32 0.33 2.64 0.66 4 1-0.165 0.536-0.33 1.07-0.5 1.62-0.597 2.83-0.566 5.49-0.5 8.38h3c-0.495-0.99-0.495-0.99-1-2-0.0402-2.33-0.0432-4.67 0-7h3c0.495 3.96 0.495 3.96 1 8 0.563-0.211 1.13-0.423 1.71-0.641 3.05-0.478 4.33 0.368 6.98 1.89 0.788 0.438 1.58 0.877 2.39 1.33 1.93 1.42 1.93 1.42 2.93 4.42-0.639-0.33-1.28-0.66-1.94-1-4.07-1.33-7.81-1.17-12.1-1-0.495 1.49-0.495 1.49-1 3v-2h-3c0.0232 0.626 0.0464 1.25 0.0703 1.9 0.018 0.817 0.0361 1.63 0.0547 2.48 0.0232 0.812 0.0464 1.62 0.0703 2.46-0.195 2.16-0.195 2.16-2.2 4.16h4c1.3 2.61 1.13 4.59 1.12 7.5 0.00387 1.47 0.00387 1.47 0.00781 2.97-0.133 2.53-0.133 2.53-1.13 4.53-0.225 1.54-0.408 3.08-0.562 4.62-0.0838 0.817-0.168 1.63-0.254 2.48-0.0606 0.626-0.121 1.25-0.184 1.9-0.99 0.33-1.98 0.66-3 1v-7h-2v6c-2.47 0.99-2.47 0.99-5 2v3h-2c0.227 0.536 0.454 1.07 0.688 1.62 0.449 3.41-1.16 5.32-2.69 8.38-0.527 2.68-0.765 5.28-1 8-1.7 0.402-1.7 0.402-3.44 0.812-1.76 0.588-1.76 0.588-3.56 1.19-0.33 0.99-0.66 1.98-1 3-1.48 0.495-1.48 0.495-3 1-0.495 0.99-0.495 0.99-1 2h-2v3c-2.96 1.48-5.74 1.06-9 1 0-8 0-8 2.38-10.4 0.866-0.866 1.73-1.73 2.62-2.62 0.682-1.66 1.35-3.33 2-5 0.9-1.4 1.84-2.77 2.81-4.12 10.3-15.2 11.7-30.9 11.4-48.8-0.0151-1.67-0.0288-3.34-0.041-5.01-0.0326-4.04-0.0841-8.08-0.146-12.1h2c-0.506-2.17-1-4-2-6 0.66-0.66 1.32-1.32 2-2v-2c6.88-1 6.88-1 8-1z" fill="#0087F5"/>
<path transform="translate(495,375)" d="m0 0c3 0 3 0 6 1l1 2c1.15-0.227 2.31-0.454 3.5-0.688 4.88-0.645 8.06 0.706 12.5 2.69-0.875 5.88-0.875 5.88-2 7-0.33 0.66-0.66 1.32-1 2h-7c0.495 1.49 0.495 1.49 1 3-1.22 3.57-3.26 5.24-6.25 7.44-0.807 0.611-1.61 1.22-2.45 1.85-1.81 1.34-3.62 2.68-5.43 4.02-4.5 4.21-8.25 9.34-10.9 14.9-1.19 2.31-2.86 3.26-4.93 4.79-0.33 0.99-0.66 1.98-1 3h-2c-0.193 0.687-0.387 1.37-0.586 2.08-0.26 0.901-0.521 1.8-0.789 2.73-0.255 0.893-0.51 1.79-0.773 2.71-0.852 2.48-0.852 2.48-2.85 5.48-1.88 0.875-1.88 0.875-4 1-2.25-1.44-2.25-1.44-4-3-0.33 0.99-0.66 1.98-1 3-0.99-0.33-1.98-0.66-3-1v-3c3.75-1.12 3.75-1.12 6 0v-3c-1.32-0.66-2.64-1.32-4-2h3c0.33-0.99 0.66-1.98 1-3h3c-0.113-2.41-0.113-2.41-1-5-2.46-1.84-2.46-1.84-5-3 0.615-3.99 2.71-6.74 5-10 0.99 0.33 1.98 0.66 3 1 4.5-4.5 5.35-11.9 6-18 0.99-0.33 1.98-0.66 3-1-0.33-0.99-0.66-1.98-1-3 0.979-1.68 1.98-3.34 3-5 0.722-2.32 1.4-4.65 2-7l2 2c0.33-0.66 0.66-1.32 1-2l1 1c2.33 0.368 4.66 0.702 7 1 0.33-1.98 0.66-3.96 1-6z" fill="#F74337"/>
<path transform="translate(1229,342)" d="m0 0c1.32 0.33 2.64 0.66 4 1 0.0457 31.8 0.0811 63.7 0.102 95.5 0.0025 3.77 0.00509 7.53 0.00773 11.3 5.25e-4 0.75 0.00105 1.5 0.00159 2.27 0.00869 12.1 0.0244 24.2 0.0429 36.3 0.0188 12.4 0.0298 24.9 0.0339 37.3 0.00273 7.67 0.0113 15.3 0.0277 23 0.0119 5.9 0.0131 11.8 0.0104 17.7 5.47e-4 2.41 0.00449 4.82 0.0122 7.22 0.0524 17.2-0.812 33.3-5.68 49.9-0.217 0.763-0.434 1.53-0.658 2.31-0.215 0.735-0.429 1.47-0.65 2.23-0.193 0.665-0.385 1.33-0.584 2.01-0.67 1.82-0.67 1.82-2.67 4.82-1-1-1-1-1.11-3.04 0.00524-0.875 0.0105-1.75 0.0159-2.65 0.00322-0.944 0.00645-1.89 0.00977-2.86 0.00838-0.993 0.0168-1.99 0.0254-3.01 0.00451-0.997 0.00902-1.99 0.0137-3.02 0.0118-2.47 0.0283-4.94 0.0488-7.42h-1c-0.33 2.31-0.66 4.62-1 7h-2c-1.41-6.74-0.666-13.2 0-20h3c1.06-4.73 2-9.14 2-14 0-3 0-3 2-5 0.167-3.58 0.167-3.58 0-7h-1c-0.0292-3.37-0.0469-6.75-0.0625-10.1-0.00838-0.951-0.0168-1.9-0.0254-2.88-0.0166-4.78 0.0825-9.29 1.09-14h1c0.495 2.48 0.495 2.48 1 5h1c0.9 8.02 1.12 15.9 1 24 2.53-21.1 2.15-42.4 2.13-63.6-0.00257-4-1.73e-4 -8 0.00139-12 0.0018-6.68-5.39e-4 -13.4-0.00534-20.1-0.00549-7.73-0.00364-15.5 0.00183-23.2 0.00453-6.67 0.00518-13.3 0.00256-20-0.00156-3.97-0.00177-7.94 0.00154-11.9 0.00288-3.71 9.1e-4 -7.42-0.00489-11.1-0.00196-2.02 0.00103-4.03 0.00413-6.05-0.00282-1.19-0.00564-2.38-0.00854-3.6-3.77e-4 -1.04-7.54e-4 -2.08-0.00114-3.15 0.136-2.28 0.136-2.28-1.13-3.32-0.237-2.86-0.422-5.7-0.562-8.56-0.144-2.78-0.289-5.57-0.438-8.44-0.33 5.94-0.66 11.9-1 18-0.66-1.32-1.32-2.64-2-4-0.33 0.66-0.66 1.32-1 2h-1c-0.049-1.07-0.098-2.14-0.148-3.25-0.075-1.4-0.151-2.79-0.227-4.19-0.0309-0.707-0.0619-1.41-0.0938-2.14-0.104-1.81-0.31-3.62-0.531-5.42-0.66-0.33-1.32-0.66-2-1v-8h2c0.049-0.592 0.098-1.18 0.148-1.79 0.416-4.4 0.901-8.18 2.85-12.2h2c0.33 0.66 0.66 1.32 1 2v-10h-2c-0.33 0.66-0.66 1.32-1 2v-8c0.66 0.33 1.32 0.66 2 1 0.66-0.33 1.32-0.66 2-1-0.33-0.99-0.66-1.98-1-3z" fill="#0089F8"/>
<path transform="translate(1546,505)" d="m0 0c5.2 1.72 9.5 4.78 14 7.78 0.859 0.567 1.72 1.13 2.6 1.72 1.81 1.2 3.61 2.4 5.42 3.6 2.77 1.84 5.56 3.67 8.34 5.5 1.76 1.17 3.51 2.33 5.26 3.5 0.837 0.547 1.67 1.09 2.54 1.66 0.765 0.514 1.53 1.03 2.32 1.56 1.02 0.674 1.02 0.674 2.05 1.36 0.477 0.44 0.955 0.881 1.45 1.33v3c-6.95-4.36-13.8-8.84-20.6-13.4-4.03-2.72-8.14-5.18-12.4-7.55 0.846 0.722 1.69 1.44 2.56 2.19 1.21 1.39 1.21 1.39 2.44 2.81-0.25 2.69-0.25 2.69-1 5 0.33 0.66 0.66 1.32 1 2 0.99-1.49 0.99-1.49 2-3 1.81 0.125 1.81 0.125 4 1 2.66 4.09 3.35 7.16 3 12 1.32 0.33 2.64 0.66 4 1-0.165 1.18-0.33 2.35-0.5 3.56-0.487 3.85-0.581 7.56-0.5 11.4l-2 1v-2h-4c-0.186 0.905-0.186 0.905-0.375 1.83-1.62 6.27-1.62 6.27-4.29 8.66-5.01 2.75-9.72 2.98-15.3 2.51 0.476-0.905 0.476-0.905 0.961-1.83 1.14-2.38 1.61-4.58 2.04-7.17h3c2-0.314 4-0.645 6-1 0.33-0.99 0.66-1.98 1-3h2c-0.143-1.1-0.143-1.1-0.289-2.23-0.111-0.976-0.222-1.95-0.336-2.96-0.116-0.963-0.232-1.93-0.352-2.92-0.0254-3.14 0.633-5.09 1.98-7.89-1.32-0.33-2.64-0.66-4-1v-7c-0.928 0.0206-1.86 0.0412-2.81 0.0625-3.19-0.0625-3.19-0.0625-6.19-1.06-1.48 0.495-1.48 0.495-3 1-0.289-0.804-0.578-1.61-0.875-2.44-0.858-2.7-0.858-2.7-3.12-3.56-0.495-1.49-0.495-1.49-1-3-2-1.21-2-1.21-4-2-0.389 0.496-0.779 0.993-1.18 1.5-11.4 13.9-28.5 22.2-46.2 24.2-22.7 1.93-40.9-4.23-58.3-18.5-2.12-1.94-3.8-3.73-5.35-6.15v-2c-0.66-0.33-1.32-0.66-2-1h3c1.44 1.47 1.44 1.47 3 3.5 10.1 11.9 24.6 18.8 40 20.5 20.4 1.57 39.3-1.54 55.9-14.2 6.76-5.89 12.8-12.6 18.1-19.8z" fill="#F44236"/>
<path transform="translate(1148,340)" d="m0 0c11.1 3.41 19.4 9.82 27.6 17.7 2.18 2.27 2.18 2.27 4.4 3.26-0.33-0.66-0.66-1.32-1-2-0.0983-2.66-0.139-5.28-0.125-7.94-0.0058-1.09-0.0058-1.09-0.0117-2.21 0.00589-3.21 0.114-5.79 1.14-8.85h54v2h-47c0.833 2.17 0.833 2.17 3 3-0.33 0.66-0.66 1.32-1 2 1.65-0.33 3.3-0.66 5-1v4h-2c0.495 0.99 0.495 0.99 1 2 0.66-0.33 1.32-0.66 2-1v2h2c-0.66 1.65-1.32 3.3-2 5h2v7h-3c0.0522 1.23 0.0522 1.23 0.105 2.48 0.0271 1.08 0.0541 2.16 0.082 3.27 0.0522 1.6 0.0522 1.6 0.105 3.23-0.335 3.45-0.633 4.78-3.29 7.02-3.36 0.391-3.36 0.391-7.19 0.25-1.91-0.0541-1.91-0.0541-3.86-0.109-0.976-0.0464-1.95-0.0928-2.96-0.141-0.193-0.566-0.387-1.13-0.586-1.71-0.391-1.1-0.391-1.1-0.789-2.22-0.383-1.1-0.383-1.1-0.773-2.21-0.704-2.03-0.704-2.03-2.85-2.85-0.33-0.33-0.66-0.66-1-1-0.99 0.33-1.98 0.66-3 1-0.33-3.63-0.66-7.26-1-11 0.66 0.33 1.32 0.66 2 1-1.11-2.06-1.11-2.06-3-4-1.01-0.144-2.02-0.289-3.06-0.438-0.969-0.186-1.94-0.371-2.94-0.562-0.295-0.758-0.59-1.52-0.895-2.3-1.35-3.29-2.88-4.44-5.73-6.52-0.817-0.605-1.63-1.21-2.48-1.83-0.626-0.447-1.25-0.895-1.9-1.36 0.66-0.33 1.32-0.66 2-1v-2c-0.99-0.33-1.98-0.66-3-1v-1z" fill="#007ADC"/>
<path transform="translate(611,356)" d="m0 0c9.85 0.635 9.85 0.635 13.3 4.45 0.411 0.554 0.822 1.11 1.25 1.68 3.4 4.16 7.52 6.96 11.9 10 7.28 5.27 12.4 12.4 17.1 19.9 1.45 2.21 1.45 2.21 4.43 3.95 0.388 1.65 0.713 3.32 1 5 0.766 1.83 1.58 3.65 2.44 5.44 4.6 9.91 4.6 9.91 4.5 14.1-0.114 2.66-0.114 2.66 1.5 5.31 2.8 5.71 2.81 11.9 2.56 18.2-0.33 0.66-0.66 1.32-1 2-1.65-0.33-3.3-0.66-5-1-0.99-4.95-0.99-4.95-2-10-1.65-0.33-3.3-0.66-5-1 0.33-0.66 0.66-1.32 1-2h3c-1.32-0.33-2.64-0.66-4-1v-2h2c0.33-2.31 0.66-4.62 1-7-1.98 0.495-1.98 0.495-4 1 0.33 0.66 0.66 1.32 1 2-0.0865 1.55-0.24 3.09-0.438 4.62-0.102 0.817-0.204 1.63-0.309 2.48-0.0838 0.626-0.168 1.25-0.254 1.9h-5c-0.0271-1.6-0.0464-3.21-0.0625-4.81-0.0116-0.893-0.0232-1.79-0.0352-2.71 0.0977-2.48 0.0977-2.48 1.1-5.48h3c-0.33-4.29-0.66-8.58-1-13-0.99-0.33-1.98-0.66-3-1-0.758-2.67-1.41-5.29-2-8-0.68-2.83-0.68-2.83-2-5-1.66-0.674-3.33-1.34-5-2-1.87-1.88-3.38-3.89-5-6-1.64-1.64-3.78-1.6-6-2-0.33-0.99-0.66-1.98-1-3l-2-1c-2-1-2-1-3-4-0.655-0.266-1.31-0.531-1.98-0.805-2.02-1.2-2.02-1.2-2.84-4.02-0.139-1.09-0.278-2.18-0.422-3.3-0.15-1.1-0.299-2.19-0.453-3.32-0.098-0.843-0.196-1.69-0.297-2.55-1.98 0.33-3.96 0.66-6 1-0.33-0.99-0.66-1.98-1-3 0.33-0.33 0.66-0.66 1-1-1.65-0.33-3.3-0.66-5-1 0.66-0.66 1.32-1.32 2-2z" fill="#F74337"/>
<path transform="translate(395,375)" d="m0 0c2.16 10.5 2.28 20.8 2.21 31.5-0.0184 2.84-0.0205 5.68-0.0203 8.52-0.00491 1.83-0.0107 3.66-0.0176 5.49-0.00111 0.837-0.00223 1.67-0.00337 2.54-0.0517 6.47-0.555 12.7-2.16 19-0.212 1.94-0.42 3.87-0.625 5.81-0.976 7.03-2.79 13.7-4.81 20.5-0.451 1.55-0.451 1.55-0.911 3.13-0.296 0.964-0.593 1.93-0.898 2.92-0.265 0.869-0.53 1.74-0.802 2.63-0.314 0.661-0.628 1.32-0.951 2-3.13 1.04-3.99 0.934-7 0-0.33-1.32-0.66-2.64-1-4v4h-3c-0.0425-2-0.0408-4 0-6 1-1 1-1 3.81-1.06 1.05 0.0206 2.1 0.0412 3.19 0.0625h4c0.33-1.65 0.66-3.3 1-5h-2v-27c-0.66-0.33-1.32-0.66-2-1 0.133-0.545 0.266-1.09 0.402-1.65 0.952-4.07 1.7-7.99 2.04-12.2 0.364-3.54 0.804-5.72 3.56-8.19 1.65-0.696 3.32-1.37 5-2-0.139-3.58-0.287-7.17-0.438-10.8-0.0393-1.02-0.0786-2.03-0.119-3.08-0.0419-0.98-0.0838-1.96-0.127-2.97-0.0367-0.901-0.0733-1.8-0.111-2.73-0.189-2.28-0.619-4.27-1.21-6.47-0.22-2.25-0.405-4.5-0.562-6.75-0.126-1.76-0.126-1.76-0.254-3.55-0.0606-0.892-0.121-1.78-0.184-2.7 2-1 2-1 4-1z" fill="#0089F8"/>
<path transform="translate(1045,611)" d="m0 0c0.66 2.64 1.32 5.28 2 8h2c1.47 1.86 1.47 1.86 3.06 4.31 0.527 0.801 1.05 1.6 1.6 2.43 1.34 2.26 1.34 2.26 2.34 5.26 1.66 1.34 3.33 2.67 5 4v2c0.603 0.276 1.21 0.552 1.83 0.836 2.17 1.16 2.17 1.16 4.92 3.79 14.8 12.9 33.6 15.5 52.5 14.6 16.4-1.25 29.6-8.45 41.8-19.2 0 3 0 3-1.88 5.25-14.2 13.2-30.3 17.1-49.2 17-1.12 0.00773-2.23 0.0155-3.38 0.0234-8.6-0.0203-16.1-1.04-24.1-4.4-0.847-0.353-1.69-0.706-2.57-1.07-0.617-0.266-1.23-0.531-1.87-0.805-0.495 0.99-0.495 0.99-1 2h-9v-3c-1.48 0.495-1.48 0.495-3 1v-2.81c-0.33-1.05-0.66-2.1-1-3.19-1.97-1.01-3.95-1.58-6.06-2.23-1.94-0.77-1.94-0.77-3.81-3.14-0.693-1.62-1.35-3.25-1.94-4.91-1.9-4.35-4.77-8.02-7.51-11.9-1.68-2.84-1.68-2.84-1.68-6.84-5.19-1.09-7.47-0.905-12.4 1.19-1.07 0.455-2.15 0.91-3.25 1.38-1.11 0.473-2.22 0.946-3.37 1.43-2.1 0.877-4.21 1.75-6.31 2.62-3.22 1.34-6.43 2.68-9.62 4.06-2.67 1.15-5.36 2.24-8.06 3.31-0.928 0.371-1.86 0.742-2.81 1.12-0.722 0.289-1.44 0.577-2.19 0.875v-3c1.18-0.499 2.35-0.999 3.56-1.51 4.38-1.86 8.76-3.72 13.1-5.59 1.89-0.804 3.78-1.61 5.68-2.41 2.73-1.16 5.46-2.32 8.18-3.48 0.839-0.356 1.68-0.713 2.54-1.08 0.8-0.34 1.6-0.68 2.43-1.03 0.758-0.321 1.52-0.642 2.3-0.973 1.42-0.606 2.83-1.22 4.24-1.84 4.73-2.08 4.73-2.08 6.93-2.08z" fill="#007BDF"/>
<path transform="translate(314,495)" d="m0 0 1 2c2.02 0.652 2.02 0.652 4 1-0.33 0.33-0.66 0.66-1 1-0.237 2.86-0.422 5.7-0.562 8.56-0.0648 1.21-0.0648 1.21-0.131 2.44-0.106 2-0.207 4-0.307 5.99-1.98 0.66-3.96 1.32-6 2v2c-0.71 0.121-1.42 0.242-2.15 0.367-0.919 0.168-1.84 0.335-2.79 0.508-0.917 0.162-1.83 0.325-2.78 0.492-0.754 0.209-1.51 0.418-2.29 0.633l-1 2c-0.66-0.33-1.32-0.66-2-1v-2c-1.32 0.33-2.64 0.66-4 1v10c-9.57 4.57-9.57 4.57-14 4 1.32-1.32 2.64-2.64 4-4-1.65-0.66-3.3-1.32-5-2-1.16 3.47-1.07 6.36-1 10h-2c0.33-1.32 0.66-2.64 1-4-1.32-0.33-2.64-0.66-4-1v5h-2v-6h-2c0.33-1.32 0.66-2.64 1-4 1.07-0.0825 2.14-0.165 3.25-0.25 4.02-0.805 5.23-1.63 7.75-4.75v2h2c0.144-0.577 0.289-1.15 0.438-1.75 0.186-0.742 0.371-1.49 0.562-2.25 0.0619-0.66 0.124-1.32 0.188-2 1.55-3.82 5.67-5.37 9.14-7.29 3.18-2.04 5.87-4.45 8.61-7.02 0.526-0.488 1.05-0.975 1.59-1.48 3.57-3.33 7.07-6.71 10.5-10.2z" fill="#0089F8"/>
<path transform="translate(546 332)" d="m0 0c1.71-0.0184 1.71-0.0184 3.46-0.0371 7.96-0.0135 15.5 0.795 23.3 2.22-1.32 0.33-2.64 0.66-4 1 0.186 0.598 0.371 1.2 0.562 1.81 0.438 2.19 0.438 2.19-0.562 5.19-25.2 3.08-25.2 3.08-33 1v4c-5.91 0.773-11.1 1.15-17 0 0.66-2.31 1.32-4.62 2-7-3.67-2.38-6.49-2.05-10.8-1.62-1.76 0.166-1.76 0.166-3.55 0.336-0.892 0.0954-1.78 0.191-2.7 0.289 3.82-2.24 7.98-3.09 12.2-4.06 0.726-0.173 1.45-0.347 2.2-0.525 9.3-2.16 18.2-2.59 27.7-2.6z" fill="#D63A2F"/>
<path transform="translate(1476 332)" d="m0 0c1.19-0.00773 2.38-0.0155 3.6-0.0234 7.32 0.0161 14.2 0.674 21.3 2.27v1h-13c-0.33 0.66-0.66 1.32-1 2 0.66 0.33 1.32 0.66 2 1v2c-1.09 0.0619-2.19 0.124-3.31 0.188-1.22 0.268-2.43 0.536-3.69 0.812-1.04 1.64-2.04 3.31-3 5-5.02 3.01-8.21 3.17-13.9 2.26-2.54-0.318-4.64 0.0276-7.09 0.738-3-3.75-3-3.75-3-6-1.92-0.0271-3.83-0.0465-5.75-0.0625-1.07-0.0116-2.13-0.0232-3.23-0.0352-2.92-0.0242-2.92-0.0242-5.28 0.727-0.859 0.184-0.859 0.184-1.73 0.371-0.66-0.66-1.32-1.32-2-2 0.33-0.66 0.66-1.32 1-2l-4-1c2.41-0.802 4.83-1.59 7.25-2.38 0.663-0.222 1.33-0.443 2.01-0.672 10.8-3.47 21.5-4.28 32.8-4.2z" fill="#D1382E"/>
<path transform="translate(461,442)" d="m0 0c1.32 0.66 2.64 1.32 4 2-0.33 1.32-0.66 2.64-1 4h-2c-0.0425 2-0.0408 4 0 6l1 1v-5c0.66-0.33 1.32-0.66 2-1 0.33 1.32 0.66 2.64 1 4 0.33-2.31 0.66-4.62 1-7h4c-0.165 0.949-0.33 1.9-0.5 2.88-1.14 8.08-0.457 16.2 0.375 24.3 0.0786 0.85 0.157 1.7 0.238 2.58 0.383 3.81 0.847 7.43 1.96 11.1 0.93 3.14 0.93 3.14 0.93 7.14h2c0.33 2.97 0.66 5.94 1 9h-3c0.33 1.32 0.66 2.64 1 4-2.17-0.506-4-1-6-2-0.495 0.99-0.495 0.99-1 2-1.12-4.75-1.12-4.75 0-7-0.597-2.62-0.597-2.62-2-5-2.04-0.887-2.04-0.887-4-1-0.33-1.65-0.66-3.3-1-5 1.49-0.495 1.49-0.495 3-1 0.66 0.33 1.32 0.66 2 1-0.66-1.32-1.32-2.64-2-4h2v-10c-0.66 0.66-1.32 1.32-2 2v-4c-0.928-0.0928-0.928-0.0928-1.88-0.188-2.12-0.812-2.12-0.812-3.38-3.19-0.75-2.62-0.75-2.62-0.75-5.62-0.66 0.99-1.32 1.98-2 3-0.33-1.65-0.66-3.3-1-5h-2c0.75-6.62 0.75-6.62 3-10 0.464-0.99 0.464-0.99 0.938-2 1.06-2 1.06-2 2.69-3.56 1.72-1.47 1.72-1.47 1.38-4.44z" fill="#F74337"/>
<path transform="translate(477,507)" d="m0 0c0.66 0.99 1.32 1.98 2 3-0.33 0.99-0.66 1.98-1 3 1.07 0.103 2.14 0.206 3.25 0.312 3.6 0.66 5.21 1.15 7.75 3.69v2c0.639 0.268 1.28 0.536 1.94 0.812 2.06 1.19 2.06 1.19 3.06 4.19 1.32 0.702 2.65 1.37 4 2 1.75 1.5 1.75 1.5 3 3v2c2.31 0.66 4.62 1.32 7 2v2c3.23 1.74 6.51 2.89 10 4v2c-0.888-0.108-0.888-0.108-1.79-0.219-4.09-0.48-8.08-0.914-12.2-0.781v2c-2.97 0.495-2.97 0.495-6 1-0.99-1.32-1.98-2.64-3-4l-2 1c-2-1-2-1-3-4-1.87-0.802-1.87-0.802-4.06-1.19-1.1-0.238-1.1-0.238-2.22-0.48-0.849-0.164-0.849-0.164-1.71-0.332l-1 2c-0.99-0.33-1.98-0.66-3-1h2c-0.33-1.65-0.66-3.3-1-5-0.66 0.66-1.32 1.32-2 2-0.33-0.99-0.66-1.98-1-3h2v-2h-3c-0.33-4.95-0.66-9.9-1-15h2c0.33-1.65 0.66-3.3 1-5z" fill="#F74337"/>
<path transform="translate(102,490)" d="m0 0c0.907 0.784 1.81 1.57 2.75 2.38 0.967 0.824 0.967 0.824 1.95 1.66 1.64 1.4 3.28 2.82 4.91 4.23 19.2 16.4 40.8 27.7 65.4 33.7 0.706 0.176 1.41 0.353 2.14 0.535 34.8 8.32 76.8 1.98 107-16.8 10.1-6.46 19.2-14.1 27.5-22.8 0 3 0 3-2.34 5.7-1.01 1-2.02 2-3.04 2.99-0.508 0.511-1.02 1.02-1.54 1.55-3.82 3.76-3.82 3.76-6.09 3.76-0.33 0.99-0.66 1.98-1 3-3.8 3.53-7.3 5.78-12 8-1.73 0.952-3.46 1.91-5.19 2.88-12.5 6.84-25 11.8-39 14.5-2.67 0.329-2.67 0.329-3.77 1.61-9.04 1.54-18.4 1.15-27.6 1.13-2.56-0.00537-5.11-1.88e-5 -7.67 0.00635-1.65-6.61e-4 -3.3-0.00194-4.96-0.00391-1.13 0.00304-1.13 0.00304-2.27 0.00613-7.12-0.031-13.9-0.261-20.5-3.14-2.5-0.633-4.99-1.23-7.5-1.81-9.33-2.25-18.3-5.12-26.5-10.2-1.73-0.923-3.46-1.84-5.19-2.75-10.1-5.49-18.7-12.4-27.3-19.9-1.06-0.899-2.14-1.77-3.24-2.62-4.13-3.22-4.13-3.22-5.19-6-0.0413-0.557-0.0825-1.11-0.125-1.69z" fill="#000002"/>
<path transform="translate(1043,430)" d="m0 0h1c0.197 1.42 0.382 2.83 0.562 4.25 0.104 0.789 0.209 1.58 0.316 2.39 0.124 2.42-0.209 4.04-0.879 6.36-3.5 17-3.84 36.7 3 53 0.66 0.33 1.32 0.66 2 1 0.119 0.703 0.237 1.41 0.359 2.13 0.845 3.79 2.77 6.62 4.89 9.81 0.383 0.595 0.766 1.19 1.16 1.8 3.33 5.09 6.85 10.2 11.8 13.9 2.52 2.13 3.69 3.35 4.81 6.38-4.91-0.42-6.62-2.62-10-6h-4c-3.25-2-3.25-2-6-4 0.247-0.743 0.495-1.49 0.75-2.25 0.0825-0.908 0.165-1.82 0.25-2.75-1.83-2.17-1.83-2.17-4-4-0.33-0.99-0.66-1.98-1-3-0.99 0.495-0.99 0.495-2 1-2.06-1.5-2.06-1.5-4-4-0.0593-2.82 0.44-5.2 1-8-0.99-0.66-1.98-1.32-3-2-1.47-3.6-1.14-7.57-1.13-11.4-9.57e-4 -0.721-0.00191-1.44-0.0029-2.18-6.8e-4 -1.53 0.00116-3.05 0.00534-4.58 0.00529-2.3 8.04e-5 -4.59-0.00635-6.89-0.0107-20.8-0.0107-20.8 2.14-28.9 0.29-2.58 0.504-5.17 0.719-7.76 0.281-2.24 0.281-2.24 1.28-4.24z" fill="#0089F7"/>
<path transform="translate(1418,509)" d="m0 0 3 3-2 1v2c0.66-0.66 1.32-1.32 2-2v2c0.99 0.33 1.98 0.66 3 1 0.667 1.67 1.33 3.33 2 5 0.99 0.33 1.98 0.66 3 1-0.33-1.32-0.66-2.64-1-4 0.99 0.66 1.98 1.32 3 2v2c0.619 0.206 1.24 0.413 1.88 0.625 2.98 1.93 3.17 4.03 4.12 7.38 0.66 0.99 1.32 1.98 2 3-0.639 0.289-1.28 0.577-1.94 0.875-2.21 0.953-2.21 0.953-3.06 3.12 0.701-0.33 1.4-0.66 2.12-1 3.2-1.11 5.51-1.37 8.88-1 0.66 0.99 1.32 1.98 2 3-0.33 0.66-0.66 1.32-1 2-2.65 0.594-5.29 0.742-8 1v2h-5c-0.495-2.48-0.495-2.48-1-5v4h-2c-0.33-2.31-0.66-4.62-1-7-0.784-0.124-1.57-0.247-2.38-0.375-2.62-0.625-2.62-0.625-4.62-2.62h-3c-1.69-2-1.69-2-3-4h6c-1.65-0.33-3.3-0.66-5-1 0-4 0-4 1-5-0.371-0.846-0.743-1.69-1.12-2.56-1.06-4.16-0.308-6.46 1.12-10.4z" fill="#F74337"/>
<path transform="translate(305 389)" d="m0 0c0.834 0.0214 1.67 0.0428 2.53 0.0649 2.38 0.0632 4.77 0.134 7.15 0.209 1.08 0.0298 1.08 0.0298 2.19 0.0603 5.02 0.175 5.02 0.175 7.25 1.29 1.34-0.314 2.67-0.651 4-1 3.56-0.222 7.12-0.185 10.7-0.188 0.956-0.0122 1.91-0.0245 2.9-0.0371 6.12-0.0125 11.5 0.682 17.4 2.22v2c2.97 0.495 2.97 0.495 6 1 0.495 1.98 0.495 1.98 1 4h-2v-2c-9.15-1.21-18.3-1.33-27.5-1.52-6.15-0.169-11.7-0.333-17.5-2.48v-2c-1.98 0.14-3.96 0.287-5.94 0.438-1.1 0.0812-2.2 0.162-3.34 0.246-2.63 0.0206-2.63 0.0206-3.72 1.32-3.07 0.126-6.11 0.189-9.18 0.203-1.39 0.00855-1.39 0.00855-2.8 0.0173-1.96 0.00947-3.92 0.016-5.88 0.0198-3 0.0097-6 0.0407-9 0.0723-1.9 0.00653-3.8 0.0118-5.7 0.0156-0.9 0.0123-1.8 0.0247-2.73 0.0374-0.837-3e-3 -1.67-6e-3 -2.54-0.00909-0.736 0.00365-1.47 0.00729-2.23 0.011-2.47-0.465-3.36-1.48-4.95-3.37 14.7-0.943 29.2-1.03 43.9-0.625z" fill="#0089F8"/>
<path transform="translate(1053,506)" d="m0 0c2.68 2.57 4.91 5.17 7.06 8.19 9.65 12.4 24.8 21.5 40.3 24.4 19.4 2.17 38.3 0.0179 54.1-12.6 1.36-1.21 2.69-2.44 4-3.71 1.49-1.29 1.49-1.29 3.49-1.29 0.227-0.536 0.454-1.07 0.688-1.62 1.75-3.16 3.95-5.64 6.31-8.38 0.495 0.99 0.495 0.99 1 2-1.28 1.67-2.58 3.34-3.88 5-0.719 0.928-1.44 1.86-2.18 2.81-0.642 0.722-1.28 1.44-1.95 2.19h-2c-0.244 0.598-0.487 1.2-0.738 1.81-2.29 3.97-6.44 5.84-10.3 8.19-1.11 0.701-2.23 1.4-3.38 2.12-10.3 5.72-20.4 7.06-31.9 7.06-0.995 0.0122-1.99 0.0245-3.01 0.0371-6.17 0.0122-11.7-0.573-17.7-2.22-0.933-0.249-1.87-0.498-2.83-0.754-11.5-3.85-23.5-12-30.9-21.8-0.561-0.744-1.12-1.49-1.7-2.25-0.532-0.721-1.06-1.44-1.61-2.18-0.563-0.69-1.13-1.38-1.71-2.09-1.29-1.91-1.29-1.91-1.29-4.91z" fill="#000002"/>
<path transform="translate(889,510)" d="m0 0 1 2c-14.9 17.6-30.4 29-54 31-12.7 0.495-27.1-0.955-38-8-1.09-0.598-2.19-1.2-3.31-1.81-7.99-4.59-14.3-10.6-20.7-17.2 0.66-0.66 1.32-1.32 2-2 0.866 1.21 0.866 1.21 1.75 2.44 10.3 12.2 27.5 20.7 43.2 22.6 20.7 1.44 39.8-2.6 56-16.2 6.52-5.93 6.52-5.93 12-12.8z" fill="#000002"/>
<path transform="translate(1427,514)" d="m0 0c0.619 0.639 1.24 1.28 1.88 1.94 1.04 1.02 2.08 2.04 3.12 3.06 0.659 0.678 1.32 1.36 2 2.05 14.2 13.8 31.6 18.5 51 18.4 18.3-0.529 34.6-6.41 47.8-19.3 2.27-2.19 4.66-4.14 7.15-6.08-3.27 10.4-15.6 17.1-24.8 21.9-0.733 0.36-1.47 0.719-2.22 1.09-0.744 0.37-1.49 0.74-2.25 1.12-17.1 7.7-38.6 6.28-55.9 0.0625-9.76-4.07-21.1-11.1-26.8-20.2v-2c-0.66-0.33-1.32-0.66-2-1 0.33-0.33 0.66-0.66 1-1z" fill="#000002"/>
<path transform="translate(487,509)" d="m0 0c2.74 2.66 5.26 5.31 7.62 8.31 10.6 12.4 28.5 20.6 44.6 21.9 18.2 1.01 36.2-2.51 50.7-14.2 0.66 0.33 1.32 0.66 2 1-6.39 6.1-13.6 9.87-21.8 13.1-2.13 0.7-2.13 0.7-3.2 1.89-21.8 3.99-41 1.63-60-10-3.54-2.46-6.81-5.09-10-8-0.566-0.509-1.13-1.02-1.71-1.54-1.41-1.33-1.41-1.33-3.29-3.46v-2c-0.99-0.33-1.98-0.66-3-1-1.19-3.06-1.19-3.06-2-6z" fill="#000002"/>
<path transform="translate(1061,637)" d="m0 0c2.86 1.31 4.41 2.39 6.75 4.62 14.8 12.9 33.6 15.5 52.5 14.6 16.4-1.25 29.6-8.45 41.8-19.2 0 3 0 3-1.88 5.25-14.2 13.2-30.3 17.1-49.2 17-1.12 0.00773-2.23 0.0155-3.38 0.0234-9.05-0.0213-16.6-1.21-24.9-4.84-1.01-0.434-2.02-0.869-3.06-1.32-1.51-0.678-3.02-1.38-4.5-2.12v-2c-0.681-0.206-1.36-0.413-2.06-0.625-5.31-2.48-9.56-5.95-11.9-11.4z" fill="#000002"/>
<path transform="translate(213,378)" d="m0 0c1.98 0.66 3.96 1.32 6 2-0.33 0.99-0.66 1.98-1 3 0.241 3.6 0.241 3.6 1 7 0.66 0.33 1.32 0.66 2 1v9h-2c-0.124-0.639-0.248-1.28-0.375-1.94-0.206-0.681-0.412-1.36-0.625-2.06-0.66-0.33-1.32-0.66-2-1-0.0606 0.699-0.121 1.4-0.184 2.12-0.126 1.37-0.126 1.37-0.254 2.76-0.0812 0.905-0.162 1.81-0.246 2.74-0.316 2.38-0.316 2.38-1.32 4.38h-2c-2.81-4.21-2.53-7.97-2.75-12.9-0.0831-1.36-0.0831-1.36-0.168-2.75-0.0425-0.876-0.0851-1.75-0.129-2.65-0.0396-0.798-0.0793-1.6-0.12-2.42 0.272-3.65 1.61-5.69 4.17-8.24z" fill="#0089F8"/>
<path transform="translate(1520,414)" d="m0 0c0.33 0.66 0.66 1.32 1 2 0.639 0.124 1.28 0.248 1.94 0.375 2.06 0.625 2.06 0.625 3.31 2.31 0.926 2.85 0.886 5.33 0.75 8.31h-8v2c-2.47-0.495-2.47-0.495-5-1-0.33-0.99-0.66-1.98-1-3 0.33-0.66 0.66-1.32 1-2h-6v-2h-7c3.15-2.58 6.32-4.17 10.1-5.75 1.04-0.449 2.09-0.897 3.16-1.36 2.78-0.891 2.78-0.891 5.78 0.109z" fill="#D73A30"/>
<path transform="translate(214,218)" d="m0 0c0.33 0.66 0.66 1.32 1 2 0.743-0.0412 1.49-0.0825 2.25-0.125 2.75 0.125 2.75 0.125 4.56 1.06 2.27 1.1 3.89 1.35 6.38 1.62 3.81 0.438 3.81 0.438 4.81 1.44 4.14 0.247 4.14 0.247 8-1 7.01-0.467 14 0.258 21 1 0.495 2.47 0.495 2.47 1 5-3.39 0.0678-6.54 0.0904-9.88-0.562-5.17-0.723-10.2-0.0836-15.1 1.56-2.01-0.626-4.01-1.3-6-2-1.05-0.165-2.1-0.33-3.19-0.5-2.81-0.5-2.81-0.5-5.81-2.5h-3v-2c-0.619 0.186-1.24 0.371-1.88 0.562-2.12 0.438-2.12 0.438-4.12-0.562-0.33 0.99-0.66 1.98-1 3 0.33-2.64 0.66-5.28 1-8z" fill="#008AF9"/>
<path transform="translate(1473,542)" d="m0 0c2.63 0.0868 5.25 0.194 7.88 0.312 0.746 0.0226 1.49 0.0451 2.26 0.0684 1.96 0.0973 3.92 0.35 5.86 0.619 0.66 0.99 1.32 1.98 2 3-0.495 0.454-0.99 0.908-1.5 1.38-1.73 1.5-1.73 1.5-1.5 3.62h-5v2c1.32-0.33 2.64-0.66 4-1 0.33 0.99 0.66 1.98 1 3-7.43 1.31-13 0.655-20-2v-2h3c-0.99-0.66-1.98-1.32-3-2 0.66-1.32 1.32-2.64 2-4 1.65 0.33 3.3 0.66 5 1v-3c-0.66-0.33-1.32-0.66-2-1z" fill="#F74337"/>
<path transform="translate(220,565)" d="m0 0c0.495 1.49 0.495 1.49 1 3-0.66 0.99-1.32 1.98-2 3-2.67 0.388-5.13 0.604-7.81 0.688-0.712 0.0342-1.42 0.0683-2.16 0.104-3.68 0.167-7.35 0.245-11 0.209v2c-5.61-0.66-11.2-1.32-17-2-0.33-0.99-0.66-1.98-1-3-2.02-0.733-2.02-0.733-4-1v-1c7.55-0.301 14.6 0.574 22 2v-2c10.9-0.99 10.9-0.99 22-2z" fill="#008AF9"/>
<path transform="translate(324,480)" d="m0 0h3c2.21 5.52 4.03 10.1 2 16-2.07 2.24-4.19 3.79-7 5-2.94-0.188-2.94-0.188-5-1 0.33-0.66 0.66-1.32 1-2-0.99-0.33-1.98-0.66-3-1-0.38-3.36-0.174-4.74 1.71-7.61 0.733-0.852 1.47-1.7 2.22-2.58 2.83-3.21 2.83-3.21 5.06-6.81z" fill="#0083EE"/>
<path transform="translate(1477,432)" d="m0 0c-1.32 0.33-2.64 0.66-4 1 0.66 0.66 1.32 1.32 2 2 2.01-0.198 2.01-0.198 4.12-0.875 1.09-0.306 1.09-0.306 2.2-0.617 0.554-0.168 1.11-0.335 1.68-0.508v5c0.99 0.33 1.98 0.66 3 1-0.33 2.31-0.66 4.62-1 7-0.33-0.66-0.66-1.32-1-2-0.866 0.33-1.73 0.66-2.62 1-3.33 0.987-5.93 1.16-9.38 1-1.12-3.75-1.12-3.75 0-6-0.892-2.12-0.892-2.12-2-4-0.908 0.351-1.82 0.701-2.75 1.06-3.26 0.939-4.18 0.893-7.25-0.0625 2.27-1.03 4.54-2.05 6.81-3.06 0.964-0.442 0.964-0.442 1.95-0.893 4.9-2.16 4.9-2.16 8.24-1.04z" fill="#D5392F"/>
<path transform="translate(1066,345)" d="m0 0h2v3c0.66 0.33 1.32 0.66 2 1-0.14 1.65-0.287 3.29-0.438 4.94-0.0812 0.917-0.162 1.83-0.246 2.78-0.316 2.29-0.316 2.29-1.32 3.29-1.62 0.0989-3.25 0.13-4.88 0.125-1.33 0.00387-1.33 0.00387-2.68 0.00781-2.45-0.133-2.45-0.133-5.45-1.13v-9h6v-3h3c0.33 0.99 0.66 1.98 1 3 0.33-1.65 0.66-3.3 1-5z" fill="#0089F8"/>
<path transform="translate(1125,562)" d="m0 0v3c0.99 0.33 1.98 0.66 3 1v1h-30c-0.33-1.65-0.66-3.3-1-5 9.4-1.63 18.6-1.01 28 0z" fill="#0089F8"/>
<path transform="translate(1516,345)" d="m0 0c3.69 0.503 6.84 0.969 10 3 0.99 1.49 0.99 1.49 2 3 3.56 1.22 3.56 1.22 7 2v2c0.66 0.33 1.32 0.66 2 1l-4 1v-3c-2.88 0.882-2.88 0.882-5 2v3c-1.65-0.33-3.3-0.66-5-1v-4c-0.99 0.33-1.98 0.66-3 1-0.66-0.33-1.32-0.66-2-1v-2h-2v-7z" fill="#F74337"/>
<path transform="translate(1045,611)" d="m0 0c0.495 1.98 0.495 1.98 1 4-1.92 0.163-3.84 0.326-5.76 0.488-2.32 0.408-2.32 0.408-4.39 1.8-4.04 2.42-8.34 4-12.7 5.71-1.75 0.687-3.5 1.37-5.24 2.06-0.832 0.328-1.66 0.655-2.52 0.992-3.15 1.26-6.25 2.6-9.36 3.95-1.66 0.673-3.33 1.34-5 2-0.928 0.371-1.86 0.742-2.81 1.12-0.722 0.289-1.44 0.577-2.19 0.875v-3c1.18-0.499 2.35-0.999 3.56-1.51 4.38-1.86 8.76-3.72 13.1-5.59 1.89-0.804 3.78-1.61 5.68-2.41 2.73-1.16 5.46-2.32 8.18-3.48 0.839-0.356 1.68-0.713 2.54-1.08 0.8-0.34 1.6-0.68 2.43-1.03 0.758-0.321 1.52-0.642 2.3-0.973 1.42-0.606 2.83-1.22 4.24-1.84 4.73-2.08 4.73-2.08 6.93-2.08z" fill="#000002"/>
<path transform="translate(1458,438)" d="m0 0c0.66 0.33 1.32 0.66 2 1-2.76 2.76-5.21 2.58-9 3 0.33 0.99 0.66 1.98 1 3-0.33 0.66-0.66 1.32-1 2 0.66 0.33 1.32 0.66 2 1-1.65 0.33-3.3 0.66-5 1v-3c-1.65 0.33-3.3 0.66-5 1 0.99 0.33 1.98 0.66 3 1-0.33 0.99-0.66 1.98-1 3h-2c-0.33 0.66-0.66 1.32-1 2-5.41 0.106-9.88-0.293-15-2 4.37-1.88 8.75-3.75 13.1-5.61 1.49-0.635 2.98-1.27 4.47-1.91 2.14-0.918 4.28-1.83 6.42-2.73 0.668-0.29 1.34-0.579 2.02-0.877 1.63-0.683 3.29-1.28 4.95-1.87zm-18 9v2h2v-2h-2z" fill="#A12B24"/>
<path transform="translate(1546,505)" d="m0 0c5.2 1.72 9.5 4.78 14 7.78 0.859 0.567 1.72 1.13 2.6 1.72 1.81 1.2 3.61 2.4 5.42 3.6 2.77 1.84 5.56 3.67 8.34 5.5 1.76 1.17 3.51 2.33 5.26 3.5 0.837 0.547 1.67 1.09 2.54 1.66 0.765 0.514 1.53 1.03 2.32 1.56 0.678 0.449 1.36 0.898 2.05 1.36 0.477 0.44 0.955 0.881 1.45 1.33v3c-8.77-5.51-17.4-11.2-26-17-2.77-1.86-5.54-3.71-8.31-5.56-0.961-0.644-0.961-0.644-1.94-1.3-3.29-2.21-3.29-2.21-6.75-4.14-0.99 0.33-1.98 0.66-3 1 0.66-1.32 1.32-2.64 2-4z" fill="#000002"/>
<path transform="translate(328,228)" d="m0 0c4.15 1.4 6.92 3.35 10.2 6.25 0.86 0.748 1.72 1.5 2.61 2.27 2.47 2.78 3.43 4.87 4.21 8.48-1.38 2.38-1.38 2.38-3 4-0.99-0.33-1.98-0.66-3-1-0.0619-1.05-0.124-2.1-0.188-3.19-0.973-4.56-2.33-5.81-5.81-8.81-2.81-2.62-2.81-2.62-5-5v-3z" fill="#0085F1"/>
<path transform="translate(1086,682)" d="m0 0c2.88-0.188 2.88-0.188 6 0 0.66 0.99 1.32 1.98 2 3 2.19 0.794 2.19 0.794 4.62 1.19 1.23 0.238 1.23 0.238 2.48 0.48 0.626 0.11 1.25 0.219 1.9 0.332v2l2 1c-1.98 0.33-3.96 0.66-6 1-0.66-1.32-1.32-2.64-2-4h-11v2h-6c-0.33-1.65-0.66-3.3-1-5h7v-2z" fill="#008AF9"/>
<path transform="translate(1094,362)" d="m0 0c2 0 2 0 3.62 1.5 0.681 0.743 0.681 0.743 1.38 1.5-0.33 0.99-0.66 1.98-1 3-1.32-0.33-2.64-0.66-4-1v3c-3.26 0.974-6.23 1.13-9.62 1.12-1.44 0.00387-1.44 0.00387-2.91 0.00781-2.46-0.133-2.46-0.133-4.46-1.13v-4c2.27-0.168 4.54-0.334 6.81-0.5 1.9-0.139 1.9-0.139 3.83-0.281 2.12-0.138 4.24-0.219 6.36-0.219v-3z" fill="#008AF9"/>
<path transform="translate(1025,371)" d="m0 0v2c1.98-0.33 3.96-0.66 6-1v3c-0.804 0.289-1.61 0.577-2.44 0.875-2.7 0.858-2.7 0.858-3.56 3.12h-3c0.33 1.65 0.66 3.3 1 5-3-1-3-1-4.19-3.06-0.268-0.639-0.536-1.28-0.812-1.94-1.65 0.66-3.3 1.32-5 2 0.931-1.3 1.87-2.59 2.81-3.88 0.522-0.719 1.04-1.44 1.58-2.18 2.37-2.87 3.84-3.95 7.61-3.95z" fill="#007ADD"/>
<path transform="translate(1433 340)" d="m0 0c1.67 0.871 1.67 0.871 2.67 3.87h-2v3c-4.54 1.45-8.18 2.24-13 2v-2c-0.66-0.33-1.32-0.66-2-1 1.91-1.04 3.83-2.05 5.75-3.06 1.6-0.853 1.6-0.853 3.23-1.72 3.02-1.21 3.02-1.21 5.34-1.09z" fill="#C7362C"/>
<path transform="translate(675,483)" d="m0 0c0.179 6.28-1.45 11.8-3.31 17.8-0.22 0.706-0.44 1.41-0.667 2.14-1.66 5.22-3.64 10.2-6.02 15.1-1.56-3.13-0.106-5.92 0.812-9.12 0.378-1.37 0.755-2.74 1.13-4.11 0.348-1.24 0.696-2.49 1.05-3.77 1.41-5.07 2.3-9.96 2.66-15.2 0.113-0.589 0.227-1.18 0.344-1.79 2-1 2-1 4-1z" fill="#FA4337"/>
<path transform="translate(253,194)" d="m0 0v2h3v2h9c0.33 0.66 0.66 1.32 1 2h-11c-0.33 0.66-0.66 1.32-1 2h-3c-0.33 0.66-0.66 1.32-1 2-1.98-0.66-3.96-1.32-6-2v-1c1.32-0.33 2.64-0.66 4-1-0.99-0.33-1.98-0.66-3-1-1.19-2.56-1.19-2.56-2-5 3.69-1.23 6.21-0.644 10 0z" fill="#0089F8"/>
<path transform="translate(1489 334)" d="m0 0c0.744 0.0524 1.49 0.105 2.25 0.159 0.806 0.0516 1.61 0.103 2.44 0.156 1.26 0.0967 1.26 0.0967 2.55 0.195 0.849 0.0567 1.7 0.113 2.57 0.172 2.1 0.142 4.2 0.296 6.3 0.453-0.33 0.99-0.66 1.98-1 3-2.97-0.495-2.97-0.495-6-1l6 3v1h-16c0.33-0.99 0.66-1.98 1-3-1.32-0.66-2.64-1.32-4-2 2-2 2-2 3.88-2.14z" fill="#F24135"/>
<path transform="translate(1154,369)" d="m0 0c4.29 0.33 8.58 0.66 13 1v5c-4.29-0.33-8.58-0.66-13-1v2c-1.98 0.33-3.96 0.66-6 1v-4c1.98-0.33 3.96-0.66 6-1v-3z" fill="#008AF9"/>
<path transform="translate(297,209)" d="m0 0c6.99 1.97 13.9 4.83 18 11-0.33 0.66-0.66 1.32-1 2-2.92-1.07-4.78-1.78-7-4-3.95-1.79-7.96-3.41-12-5 0.66-1.32 1.32-2.64 2-4z" fill="#0081E9"/>
<path transform="translate(589,339)" d="m0 0c4.41 0.516 8.29 2.28 12.3 4.06 0.968 0.422 0.968 0.422 1.96 0.854 1.58 0.69 3.16 1.39 4.73 2.08-0.907 0.222-0.907 0.222-1.83 0.449-1.63 0.414-3.25 0.877-4.86 1.36-4.61 0.261-8.52-1.15-12.3-3.81-0.824-2.08-0.824-2.08-1-4 0.33-0.33 0.66-0.66 1-1z" fill="#B73128"/>
<path transform="translate(506,394)" d="m0 0c0.66 0.33 1.32 0.66 2 1-0.652 0.519-1.3 1.04-1.98 1.57-1.81 1.45-3.62 2.9-5.43 4.35-1.9 1.52-3.83 3-5.79 4.45-3.37 3.14-5.75 6.6-8.3 10.4-1.52 2.21-1.52 2.21-3.52 4.21-0.33-0.66-0.66-1.32-1-2 0.926-2.06 0.926-2.06 2.31-4.44 0.45-0.782 0.9-1.56 1.36-2.37 4.74-7.84 12.3-13 20.3-17.2z" fill="#FA4337"/>
<path transform="translate(124,209)" d="m0 0v5h-7c-0.33 0.99-0.66 1.98-1 3-2.81 0.688-2.81 0.688-6 1-1.7-1.48-1.7-1.48-3-3 2.27-1.2 4.54-2.38 6.81-3.56 0.643-0.342 1.29-0.684 1.95-1.04 4.9-2.51 4.9-2.51 8.24-1.4z" fill="#007EE8"/>
<path transform="translate(590,344)" d="m0 0c1.02 0.433 1.02 0.433 2.06 0.875 3.27 1.25 6.57 2.2 9.94 3.12v2h-2c-0.33 0.99-0.66 1.98-1 3-2.12 0.75-2.12 0.75-5 1-3.31-1.94-3.31-1.94-6-4 0.99-0.33 1.98-0.66 3-1-0.99-0.33-1.98-0.66-3-1 0.66-1.32 1.32-2.64 2-4z" fill="#F74337"/>
<path transform="translate(493,520)" d="m0 0c3.35 1.5 5.89 3.45 8.69 5.81 4.51 3.68 9.12 6.58 14.3 9.19-0.33 0.99-0.66 1.98-1 3-2.96-0.613-4.38-1.25-7-3v-2c-1.05-0.206-2.1-0.413-3.19-0.625-4.5-1.26-6.09-3.67-8.81-7.38-0.598-0.577-1.2-1.15-1.81-1.75-1.19-1.25-1.19-1.25-1.19-3.25z" fill="#FA4337"/>
<path transform="translate(1200,360)" d="m0 0c3.96 0.33 7.92 0.66 12 1 0.33 0.99 0.66 1.98 1 3 2.64 0.33 5.28 0.66 8 1-0.33 1.32-0.66 2.64-1 4-0.99-0.66-1.98-1.32-3-2-2.58-0.456-5.09-0.829-7.69-1.12-0.702-0.0864-1.4-0.173-2.13-0.262-1.73-0.212-3.46-0.413-5.19-0.613-0.66-1.65-1.32-3.3-2-5z" fill="#008AF9"/>
<path transform="translate(310,529)" d="m0 0h4v5c-0.639 0.124-1.28 0.247-1.94 0.375-0.681 0.206-1.36 0.413-2.06 0.625-0.33 0.66-0.66 1.32-1 2-2.65 0.594-5.29 0.742-8 1v-5c2.64-0.33 5.28-0.66 8-1 0.33-0.99 0.66-1.98 1-3z" fill="#008AF9"/>
<path transform="translate(61,493)" d="m0 0h14c0.66 1.32 1.32 2.64 2 4-5.08 0.847-9.85 1.09-15 1-0.33-1.65-0.66-3.3-1-5z" fill="#008AF9"/>
<path transform="translate(569,335)" d="m0 0h6c0.33 0.99 0.66 1.98 1 3h-2c-0.33 2.97-0.66 5.94-1 9-0.33-0.66-0.66-1.32-1-2h-2c-0.33 0.66-0.66 1.32-1 2-0.247-0.784-0.495-1.57-0.75-2.38-1.4-2.95-2.26-3.53-5.25-4.62 1.98-0.33 3.96-0.66 6-1v-4z" fill="#F84337"/>
<path transform="translate(71,462)" d="m0 0c0.99 0.33 1.98 0.66 3 1 0.309 1.13 0.619 2.27 0.938 3.44 0.672 3.63 0.672 3.63 3.19 5 0.619 0.186 1.24 0.371 1.88 0.562-0.33 0.66-0.66 1.32-1 2-0.99-0.66-1.98-1.32-3-2v4c-1.65-0.33-3.3-0.66-5-1v-13z" fill="#0088F8"/>
<path transform="translate(1572,388)" d="m0 0c5.74 7.21 10.4 16.2 13 25-0.33 0.99-0.66 1.98-1 3-0.885-1.77-1.77-3.54-2.65-5.31-1.03-2.05-2.08-4.09-3.14-6.12-0.633-1.23-1.27-2.46-1.9-3.69-0.602-1.16-1.2-2.32-1.82-3.51-1.42-3.2-2.09-5.9-2.49-9.37z" fill="#FA4337"/>
<path transform="translate(1075,531)" d="m0 0c2.71 1.07 2.71 1.07 5.94 2.69 1.06 0.519 2.12 1.04 3.21 1.57 2.76 1.69 4.15 3.02 5.85 5.74-9.33-0.949-9.33-0.949-13-3-1.19-2-1.19-2-2-4-0.66-0.66-1.32-1.32-2-2 0.66-0.33 1.32-0.66 2-1z" fill="#008AF9"/>
<path transform="translate(659,397)" d="m0 0c2.57 1.29 2.76 2.32 3.88 4.94 0.343 0.806 0.686 1.61 1.04 2.44 0.358 0.865 0.717 1.73 1.09 2.62 0.379 0.896 0.758 1.79 1.15 2.71 2.85 6.89 2.85 6.89 2.85 10.3h-2c-1.84-2.76-2.53-4.49-3.38-7.62-1.44-5.02-3.38-9.66-5.62-14.4 0.33-0.33 0.66-0.66 1-1z" fill="#FA4337"/>
<path transform="translate(1403,463)" d="m0 0c0.33 1.32 0.66 2.64 1 4 1.32 0.33 2.64 0.66 4 1-0.99 0.33-1.98 0.66-3 1v3c-2 1.69-2 1.69-4 3-1.32-0.66-2.64-1.32-4-2v-4c0.804-0.248 1.61-0.495 2.44-0.75 2.73-0.972 2.73-0.972 3.38-3.38 0.0619-0.619 0.124-1.24 0.188-1.88z" fill="#F74337"/>
<path transform="translate(1501,422)" d="m0 0h-2c0.33 0.66 0.66 1.32 1 2 2.02 0.652 2.02 0.652 4 1h-2v2c-1.65 0.33-3.3 0.66-5 1v-2c-4.34 0.608-8.68 1.26-13 2 2.45-2.45 4.76-3.34 7.94-4.69 1.06-0.458 2.12-0.915 3.21-1.39 2.85-0.926 2.85-0.926 5.85 0.0742z" fill="#85241E"/>
<path transform="translate(251,193)" d="m0 0c12.7 1.93 12.7 1.93 18 4-0.33 0.99-0.66 1.98-1 3-5.94-0.99-5.94-0.99-12-2v-2c-1.32 0.33-2.64 0.66-4 1-0.33-1.32-0.66-2.64-1-4z" fill="#0071CF"/>
<path transform="translate(1555 434)" d="m0 0c0.474 0.536 0.949 1.07 1.44 1.62-1.98 0.33-3.96 0.66-6 1v4h-8v-2c1.81-1.06 1.81-1.06 4-2 0.99 0.33 1.98 0.66 3 1v-2h-6v-1c8.19-2.43 8.19-2.43 11.6-0.625z" fill="#F74337"/>
<path transform="translate(137,203)" d="m0 0c-0.947 2.37-1.65 3.75-3.75 5.25-2.89 0.962-5.23 1.01-8.25 0.75l-2-2c1.77-0.866 3.54-1.72 5.31-2.56 0.986-0.476 1.97-0.951 2.99-1.44 2.7-0.996 2.7-0.996 5.7 0.00391z" fill="#007CE3"/>
<path transform="translate(153,198)" d="m0 0c-2.59 3.24-5.23 3.79-9.19 4.69-1.09 0.251-2.17 0.503-3.29 0.762-0.831 0.182-1.66 0.364-2.52 0.551-0.33-0.99-0.66-1.98-1-3 1.72-0.703 3.45-1.39 5.19-2.06 0.963-0.383 1.93-0.766 2.92-1.16 3.1-0.834 4.84-0.664 7.89 0.223z" fill="#007EE8"/>
<path transform="translate(148,526)" d="m0 0c3.81 0.673 7.44 1.46 11 3 0.875 2.12 0.875 2.12 1 4-6.36 0.489-6.36 0.489-9.38-1.81-1.62-2.19-1.62-2.19-2.62-5.19z" fill="#0089F8"/>
<path transform="translate(1458,438)" d="m0 0c0.66 0.33 1.32 0.66 2 1-2.76 2.76-5.21 2.58-9 3 0.33 0.99 0.66 1.98 1 3-0.33 0.66-0.66 1.32-1 2 0.66 0.33 1.32 0.66 2 1-1.65 0.33-3.3 0.66-5 1v-3h-2v-3c1.95-0.864 3.91-1.72 5.88-2.56 1.09-0.476 2.18-0.951 3.3-1.44 0.931-0.329 1.86-0.657 2.82-0.996z" fill="#8E2620"/>
<path transform="translate(290,559)" d="m0 0c0.312 2.31 0.312 2.31 0 5-2.38 1.82-3.96 3-7 3v-2h-3v-3c1.48-0.502 2.96-1 4.44-1.5 0.824-0.278 1.65-0.557 2.5-0.844 2.07-0.656 2.07-0.656 3.07-0.656z" fill="#008AF9"/>
<path transform="translate(267,230)" d="m0 0c5.94 1.49 5.94 1.49 12 3v3c0.66 0.33 1.32 0.66 2 1-4.54-0.545-8.81-1.11-13-3-0.33-1.32-0.66-2.64-1-4z" fill="#008AF9"/>
<path transform="translate(138,217)" d="m0 0c6.44 0.623 12.7 1.64 19 3-3.11 2.07-3.89 2.27-7.44 2.25-0.762 0.00516-1.52 0.0103-2.31 0.0156-2.49-0.294-4.07-1.06-6.25-2.27-0.99-0.33-1.98-0.66-3-1v-2z" fill="#0089F8"/>
<path transform="translate(281,201)" d="m0 0c1.94 1.44 1.94 1.44 3 3v2c-1.63-0.06-3.25-0.149-4.88-0.25-1.36-0.0696-1.36-0.0696-2.74-0.141-2.38-0.609-2.38-0.609-3.7-2.66-0.224-0.645-0.449-1.29-0.68-1.95 3.15-1.57 5.64-0.708 9 0z" fill="#0089F8"/>
<path transform="translate(648,381)" d="m0 0h2c2.27 2.67 4.02 5.59 5.75 8.62 0.449 0.776 0.897 1.55 1.36 2.35 0.294 0.668 0.588 1.34 0.891 2.02-0.33 0.66-0.66 1.32-1 2-1.3-1.58-2.59-3.16-3.88-4.75-0.719-0.882-1.44-1.76-2.18-2.67-1.63-2.16-2.85-4.12-3.95-6.58 0.33-0.33 0.66-0.66 1-1z" fill="#F44135"/>
<path transform="translate(1032,364)" d="m0 0c2.25 2.05 3 3.01 4 6-2.31 0.33-4.62 0.66-7 1v2c-2.94-0.375-2.94-0.375-6-1-0.33-0.66-0.66-1.32-1-2 3.44-0.625 6.49-1 10-1v-5z" fill="#0089F8"/>
<path transform="translate(1031,361)" d="m0 0c0.976 2.93 1.08 4.96 1 8-4.45 0.495-4.45 0.495-9 1 5.75-6.75 5.75-6.75 8-9z" fill="#0068BF"/>
<path transform="translate(66,452)" d="m0 0c2.31 0.66 4.62 1.32 7 2-0.99 0.495-0.99 0.495-2 1-0.652 2.02-0.652 2.02-1 4h-1c-0.99 0.33-1.98 0.66-3 1-1.12-2.31-1.12-2.31-2-5 0.66-0.99 1.32-1.98 2-3z" fill="#0088F8"/>
<path transform="translate(1168,381)" d="m0 0h9v5c-3.38 0.125-3.38 0.125-7 0-0.66-0.66-1.32-1.32-2-2v-3z" fill="#008AF9"/>
<path transform="translate(452,476)" d="m0 0c2.86 1.28 5.02 2.53 7 5v3c0.66 0.33 1.32 0.66 2 1-0.99 1.32-1.98 2.64-3 4-1.32-0.33-2.64-0.66-4-1h3c-1.14-4.48-2.43-8.15-5-12z" fill="#F74337"/>
<path transform="translate(1151,531)" d="m0 0h2v2c1.65 0.33 3.3 0.66 5 1 0.33 1.65 0.66 3.3 1 5-2 1-2 1-5.12 0.0625-0.949-0.351-1.9-0.701-2.88-1.06 0.206-0.619 0.412-1.24 0.625-1.88 0.124-0.701 0.247-1.4 0.375-2.12-0.66-0.66-1.32-1.32-2-2 0.33-0.33 0.66-0.66 1-1z" fill="#0089F8"/>
<path transform="translate(328,228)" d="m0 0c3.94 1.31 6.23 2.92 9 6l-4 2c-2.5-2.31-2.5-2.31-5-5v-3z" fill="#007ADC"/>
<path transform="translate(1130,567)" d="m0 0c2.31 0.33 4.62 0.66 7 1v2h3v3c-6.62-0.75-6.62-0.75-10-3v-3z" fill="#008AF9"/>
<path transform="translate(163,561)" d="m0 0c9.1 0.91 9.1 0.91 12 3 0.33 0.99 0.66 1.98 1 3-5.56 0.371-5.56 0.371-7.62-1.38-0.454-0.536-0.907-1.07-1.38-1.62-2.1-1.18-2.1-1.18-4-2v-1z" fill="#008AF9"/>
<path transform="translate(656,422)" d="m0 0h5c-0.33 2.31-0.66 4.62-1 7h-2v2c1.32-0.33 2.64-0.66 4-1v2c-1.65 0.33-3.3 0.66-5 1-1.52-3.04-0.471-5.7 0-9-0.33-0.66-0.66-1.32-1-2z" fill="#FB4337"/>
<path transform="translate(1189,365)" d="m0 0h3c0.33 2.64 0.66 5.28 1 8l-4 2v-10z" fill="#0087F8"/>
<path transform="translate(288,238)" d="m0 0c3.46 1.98 3.46 1.98 7 4-0.33 0.66-0.66 1.32-1 2-2.97-0.495-2.97-0.495-6-1v4h-2v-5h2v-4z" fill="#008AF9"/>
<path transform="translate(1062,362)" d="m0 0c3.3 0.33 6.6 0.66 10 1v2c0.66 0.33 1.32 0.66 2 1h-12v-4z" fill="#008AF9"/>
<path transform="translate(40,464)" d="m0 0c2.31 0.33 4.62 0.66 7 1 0.33 1.32 0.66 2.64 1 4h-8v-5z" fill="#008AF9"/>
<path transform="translate(89,227)" d="m0 0c3.7 0.39 5.62 1.12 8 4-2.71 1.35-5.01 1.07-8 1-0.562-1.94-0.562-1.94-1-4 0.33-0.33 0.66-0.66 1-1z" fill="#0089F8"/>
<path transform="translate(1078,652)" d="m0 0c2.94 0.812 2.94 0.812 6 2 0.33 0.99 0.66 1.98 1 3-2.31 1.12-2.31 1.12-5 2-0.99-0.66-1.98-1.32-3-2 0.33-1.65 0.66-3.3 1-5z" fill="#0089F8"/>
<path transform="translate(1021,628)" d="m0 0c0.66 1.32 1.32 2.64 2 4-1.65-0.33-3.3-0.66-5-1v5c-1.32-0.33-2.64-0.66-4-1 0.33-1.65 0.66-3.3 1-5h6v-2z" fill="#008AF9"/>
<path transform="translate(56,352)" d="m0 0h3v14c-0.99 0.495-0.99 0.495-2 1-0.33-4.95-0.66-9.9-1-15z" fill="#008AF9"/>
<path transform="translate(562 334)" d="m0 0c1.67 0.0619 1.67 0.0619 3.38 0.125-0.33 1.32-0.66 2.64-1 4-2.88 0.125-2.88 0.125-6 0-0.66-0.66-1.32-1.32-2-2 2-2 2-2 5.62-2.12z" fill="#FA4337"/>
<path transform="translate(1032,646)" d="m0 0c3.01 0.644 5.52 1.65 8.25 3.06 0.706 0.362 1.41 0.724 2.14 1.1 0.531 0.277 1.06 0.554 1.61 0.84v2c-2.64-0.66-5.28-1.32-8-2v-2c-1.32-0.33-2.64-0.66-4-1v-2z" fill="#008AF9"/>
<path transform="translate(1561,371)" d="m0 0c2.02 1.93 3.42 3.63 5 6 0.66 0.33 1.32 0.66 2 1-0.33 0.99-0.66 1.98-1 3-3.34-1.38-5.22-2.82-7-6 0.312-2.25 0.312-2.25 1-4z" fill="#AC2E26"/>
<path transform="translate(1537,356)" d="m0 0h2v2h3c0.66 1.65 1.32 3.3 2 5-1.65 0.66-3.3 1.32-5 2-0.66-1.32-1.32-2.64-2-4h3c-0.99-1.65-1.98-3.3-3-5z" fill="#F74337"/>
<path transform="translate(74,332)" d="m0 0c1.28 3.85 0.405 5.4-0.938 9.19-0.38 1.09-0.761 2.17-1.15 3.29-0.3 0.831-0.601 1.66-0.91 2.52h-2c1.74-10.6 1.74-10.6 5-15z" fill="#0089F8"/>
<path transform="translate(94,493)" d="m0 0c3.21 1.38 5.05 2.92 7.25 5.62 0.781 0.947 0.781 0.947 1.58 1.91 0.58 0.723 0.58 0.723 1.17 1.46-0.33 0.66-0.66 1.32-1 2-1.51-1.45-3-2.91-4.5-4.38-0.835-0.812-1.67-1.62-2.53-2.46-1.97-2.16-1.97-2.16-1.97-4.16z" fill="#0088F8"/>
<path transform="translate(296,553)" d="m0 0c0.626 0.0722 1.25 0.144 1.9 0.219 1.23 0.139 1.23 0.139 2.48 0.281 1.22 0.139 1.22 0.139 2.46 0.281 2.13 0.252 2.13 0.252 4.16 0.219v2c-7.43 2.43-7.43 2.43-11 1v-4z" fill="#008AF9"/>
<path transform="translate(1385,452)" d="m0 0h6v2c0.66 0.33 1.32 0.66 2 1l-4 1v3c-2-1.81-2-1.81-4-4v-3z" fill="#F74337"/>
<path transform="translate(1457,442)" d="m0 0c0.688 2.06 0.688 2.06 1 4h-7v-4c3-1 3-1 6 0z" fill="#F84337"/>
<path transform="translate(219,553)" d="m0 0h12v5h-3c-0.33-1.32-0.66-2.64-1-4h-8v-1z" fill="#008AF9"/>
</svg>
